%FSLAX44Y44*%
%MOMM*%
G71*
G01*
G75*
G04 Layer_Color=16711935*
G04:AMPARAMS|DCode=10|XSize=0.95mm|YSize=1.85mm|CornerRadius=0.2375mm|HoleSize=0mm|Usage=FLASHONLY|Rotation=180.000|XOffset=0mm|YOffset=0mm|HoleType=Round|Shape=RoundedRectangle|*
%AMROUNDEDRECTD10*
21,1,0.9500,1.3750,0,0,180.0*
21,1,0.4750,1.8500,0,0,180.0*
1,1,0.4750,-0.2375,0.6875*
1,1,0.4750,0.2375,0.6875*
1,1,0.4750,0.2375,-0.6875*
1,1,0.4750,-0.2375,-0.6875*
%
%ADD10ROUNDEDRECTD10*%
G04:AMPARAMS|DCode=11|XSize=3.3mm|YSize=1.85mm|CornerRadius=0.4625mm|HoleSize=0mm|Usage=FLASHONLY|Rotation=180.000|XOffset=0mm|YOffset=0mm|HoleType=Round|Shape=RoundedRectangle|*
%AMROUNDEDRECTD11*
21,1,3.3000,0.9250,0,0,180.0*
21,1,2.3750,1.8500,0,0,180.0*
1,1,0.9250,-1.1875,0.4625*
1,1,0.9250,1.1875,0.4625*
1,1,0.9250,1.1875,-0.4625*
1,1,0.9250,-1.1875,-0.4625*
%
%ADD11ROUNDEDRECTD11*%
G04:AMPARAMS|DCode=12|XSize=0.4mm|YSize=1.35mm|CornerRadius=0.1mm|HoleSize=0mm|Usage=FLASHONLY|Rotation=270.000|XOffset=0mm|YOffset=0mm|HoleType=Round|Shape=RoundedRectangle|*
%AMROUNDEDRECTD12*
21,1,0.4000,1.1500,0,0,270.0*
21,1,0.2000,1.3500,0,0,270.0*
1,1,0.2000,-0.5750,-0.1000*
1,1,0.2000,-0.5750,0.1000*
1,1,0.2000,0.5750,0.1000*
1,1,0.2000,0.5750,-0.1000*
%
%ADD12ROUNDEDRECTD12*%
G04:AMPARAMS|DCode=13|XSize=2.1mm|YSize=2mm|CornerRadius=0.5mm|HoleSize=0mm|Usage=FLASHONLY|Rotation=90.000|XOffset=0mm|YOffset=0mm|HoleType=Round|Shape=RoundedRectangle|*
%AMROUNDEDRECTD13*
21,1,2.1000,1.0000,0,0,90.0*
21,1,1.1000,2.0000,0,0,90.0*
1,1,1.0000,0.5000,0.5500*
1,1,1.0000,0.5000,-0.5500*
1,1,1.0000,-0.5000,-0.5500*
1,1,1.0000,-0.5000,0.5500*
%
%ADD13ROUNDEDRECTD13*%
G04:AMPARAMS|DCode=14|XSize=1.6mm|YSize=1.9mm|CornerRadius=0.4mm|HoleSize=0mm|Usage=FLASHONLY|Rotation=90.000|XOffset=0mm|YOffset=0mm|HoleType=Round|Shape=RoundedRectangle|*
%AMROUNDEDRECTD14*
21,1,1.6000,1.1000,0,0,90.0*
21,1,0.8000,1.9000,0,0,90.0*
1,1,0.8000,0.5500,0.4000*
1,1,0.8000,0.5500,-0.4000*
1,1,0.8000,-0.5500,-0.4000*
1,1,0.8000,-0.5500,0.4000*
%
%ADD14ROUNDEDRECTD14*%
%ADD15O,1.8500X0.6000*%
G04:AMPARAMS|DCode=16|XSize=1mm|YSize=0.95mm|CornerRadius=0.2375mm|HoleSize=0mm|Usage=FLASHONLY|Rotation=0.000|XOffset=0mm|YOffset=0mm|HoleType=Round|Shape=RoundedRectangle|*
%AMROUNDEDRECTD16*
21,1,1.0000,0.4750,0,0,0.0*
21,1,0.5250,0.9500,0,0,0.0*
1,1,0.4750,0.2625,-0.2375*
1,1,0.4750,-0.2625,-0.2375*
1,1,0.4750,-0.2625,0.2375*
1,1,0.4750,0.2625,0.2375*
%
%ADD16ROUNDEDRECTD16*%
G04:AMPARAMS|DCode=17|XSize=1.85mm|YSize=1.3mm|CornerRadius=0.195mm|HoleSize=0mm|Usage=FLASHONLY|Rotation=0.000|XOffset=0mm|YOffset=0mm|HoleType=Round|Shape=RoundedRectangle|*
%AMROUNDEDRECTD17*
21,1,1.8500,0.9100,0,0,0.0*
21,1,1.4600,1.3000,0,0,0.0*
1,1,0.3900,0.7300,-0.4550*
1,1,0.3900,-0.7300,-0.4550*
1,1,0.3900,-0.7300,0.4550*
1,1,0.3900,0.7300,0.4550*
%
%ADD17ROUNDEDRECTD17*%
G04:AMPARAMS|DCode=18|XSize=0.9mm|YSize=0.95mm|CornerRadius=0.135mm|HoleSize=0mm|Usage=FLASHONLY|Rotation=270.000|XOffset=0mm|YOffset=0mm|HoleType=Round|Shape=RoundedRectangle|*
%AMROUNDEDRECTD18*
21,1,0.9000,0.6800,0,0,270.0*
21,1,0.6300,0.9500,0,0,270.0*
1,1,0.2700,-0.3400,-0.3150*
1,1,0.2700,-0.3400,0.3150*
1,1,0.2700,0.3400,0.3150*
1,1,0.2700,0.3400,-0.3150*
%
%ADD18ROUNDEDRECTD18*%
G04:AMPARAMS|DCode=19|XSize=0.9mm|YSize=0.95mm|CornerRadius=0.135mm|HoleSize=0mm|Usage=FLASHONLY|Rotation=180.000|XOffset=0mm|YOffset=0mm|HoleType=Round|Shape=RoundedRectangle|*
%AMROUNDEDRECTD19*
21,1,0.9000,0.6800,0,0,180.0*
21,1,0.6300,0.9500,0,0,180.0*
1,1,0.2700,-0.3150,0.3400*
1,1,0.2700,0.3150,0.3400*
1,1,0.2700,0.3150,-0.3400*
1,1,0.2700,-0.3150,-0.3400*
%
%ADD19ROUNDEDRECTD19*%
%ADD20C,0.2000*%
%ADD21C,0.3000*%
%ADD22C,0.1270*%
%ADD23C,0.1778*%
%ADD24C,1.6500*%
%ADD25R,1.6500X1.6500*%
%ADD26C,0.7000*%
G04:AMPARAMS|DCode=27|XSize=0.7mm|YSize=2mm|CornerRadius=0.175mm|HoleSize=0mm|Usage=FLASHONLY|Rotation=0.000|XOffset=0mm|YOffset=0mm|HoleType=Round|Shape=RoundedRectangle|*
%AMROUNDEDRECTD27*
21,1,0.7000,1.6500,0,0,0.0*
21,1,0.3500,2.0000,0,0,0.0*
1,1,0.3500,0.1750,-0.8250*
1,1,0.3500,-0.1750,-0.8250*
1,1,0.3500,-0.1750,0.8250*
1,1,0.3500,0.1750,0.8250*
%
%ADD27ROUNDEDRECTD27*%
G04:AMPARAMS|DCode=28|XSize=1mm|YSize=2.6mm|CornerRadius=0.25mm|HoleSize=0mm|Usage=FLASHONLY|Rotation=0.000|XOffset=0mm|YOffset=0mm|HoleType=Round|Shape=RoundedRectangle|*
%AMROUNDEDRECTD28*
21,1,1.0000,2.1000,0,0,0.0*
21,1,0.5000,2.6000,0,0,0.0*
1,1,0.5000,0.2500,-1.0500*
1,1,0.5000,-0.2500,-1.0500*
1,1,0.5000,-0.2500,1.0500*
1,1,0.5000,0.2500,1.0500*
%
%ADD28ROUNDEDRECTD28*%
G04:AMPARAMS|DCode=29|XSize=1.5mm|YSize=2.6mm|CornerRadius=0.375mm|HoleSize=0mm|Usage=FLASHONLY|Rotation=0.000|XOffset=0mm|YOffset=0mm|HoleType=Round|Shape=RoundedRectangle|*
%AMROUNDEDRECTD29*
21,1,1.5000,1.8500,0,0,0.0*
21,1,0.7500,2.6000,0,0,0.0*
1,1,0.7500,0.3750,-0.9250*
1,1,0.7500,-0.3750,-0.9250*
1,1,0.7500,-0.3750,0.9250*
1,1,0.7500,0.3750,0.9250*
%
%ADD29ROUNDEDRECTD29*%
G04:AMPARAMS|DCode=30|XSize=2.7mm|YSize=1.2mm|CornerRadius=0.3mm|HoleSize=0mm|Usage=FLASHONLY|Rotation=0.000|XOffset=0mm|YOffset=0mm|HoleType=Round|Shape=RoundedRectangle|*
%AMROUNDEDRECTD30*
21,1,2.7000,0.6000,0,0,0.0*
21,1,2.1000,1.2000,0,0,0.0*
1,1,0.6000,1.0500,-0.3000*
1,1,0.6000,-1.0500,-0.3000*
1,1,0.6000,-1.0500,0.3000*
1,1,0.6000,1.0500,0.3000*
%
%ADD30ROUNDEDRECTD30*%
G04:AMPARAMS|DCode=31|XSize=1.2mm|YSize=1.2mm|CornerRadius=0.3mm|HoleSize=0mm|Usage=FLASHONLY|Rotation=0.000|XOffset=0mm|YOffset=0mm|HoleType=Round|Shape=RoundedRectangle|*
%AMROUNDEDRECTD31*
21,1,1.2000,0.6000,0,0,0.0*
21,1,0.6000,1.2000,0,0,0.0*
1,1,0.6000,0.3000,-0.3000*
1,1,0.6000,-0.3000,-0.3000*
1,1,0.6000,-0.3000,0.3000*
1,1,0.6000,0.3000,0.3000*
%
%ADD31ROUNDEDRECTD31*%
%ADD32C,0.2500*%
%ADD33C,0.6000*%
G04:AMPARAMS|DCode=34|XSize=1.1532mm|YSize=2.0532mm|CornerRadius=0.3391mm|HoleSize=0mm|Usage=FLASHONLY|Rotation=180.000|XOffset=0mm|YOffset=0mm|HoleType=Round|Shape=RoundedRectangle|*
%AMROUNDEDRECTD34*
21,1,1.1532,1.3750,0,0,180.0*
21,1,0.4750,2.0532,0,0,180.0*
1,1,0.6782,-0.2375,0.6875*
1,1,0.6782,0.2375,0.6875*
1,1,0.6782,0.2375,-0.6875*
1,1,0.6782,-0.2375,-0.6875*
%
%ADD34ROUNDEDRECTD34*%
G04:AMPARAMS|DCode=35|XSize=3.5032mm|YSize=2.0532mm|CornerRadius=0.5641mm|HoleSize=0mm|Usage=FLASHONLY|Rotation=180.000|XOffset=0mm|YOffset=0mm|HoleType=Round|Shape=RoundedRectangle|*
%AMROUNDEDRECTD35*
21,1,3.5032,0.9250,0,0,180.0*
21,1,2.3750,2.0532,0,0,180.0*
1,1,1.1282,-1.1875,0.4625*
1,1,1.1282,1.1875,0.4625*
1,1,1.1282,1.1875,-0.4625*
1,1,1.1282,-1.1875,-0.4625*
%
%ADD35ROUNDEDRECTD35*%
G04:AMPARAMS|DCode=36|XSize=0.6032mm|YSize=1.5532mm|CornerRadius=0.2016mm|HoleSize=0mm|Usage=FLASHONLY|Rotation=270.000|XOffset=0mm|YOffset=0mm|HoleType=Round|Shape=RoundedRectangle|*
%AMROUNDEDRECTD36*
21,1,0.6032,1.1500,0,0,270.0*
21,1,0.2000,1.5532,0,0,270.0*
1,1,0.4032,-0.5750,-0.1000*
1,1,0.4032,-0.5750,0.1000*
1,1,0.4032,0.5750,0.1000*
1,1,0.4032,0.5750,-0.1000*
%
%ADD36ROUNDEDRECTD36*%
G04:AMPARAMS|DCode=37|XSize=2.3032mm|YSize=2.2032mm|CornerRadius=0.6016mm|HoleSize=0mm|Usage=FLASHONLY|Rotation=90.000|XOffset=0mm|YOffset=0mm|HoleType=Round|Shape=RoundedRectangle|*
%AMROUNDEDRECTD37*
21,1,2.3032,1.0000,0,0,90.0*
21,1,1.1000,2.2032,0,0,90.0*
1,1,1.2032,0.5000,0.5500*
1,1,1.2032,0.5000,-0.5500*
1,1,1.2032,-0.5000,-0.5500*
1,1,1.2032,-0.5000,0.5500*
%
%ADD37ROUNDEDRECTD37*%
G04:AMPARAMS|DCode=38|XSize=1.8032mm|YSize=2.1032mm|CornerRadius=0.5016mm|HoleSize=0mm|Usage=FLASHONLY|Rotation=90.000|XOffset=0mm|YOffset=0mm|HoleType=Round|Shape=RoundedRectangle|*
%AMROUNDEDRECTD38*
21,1,1.8032,1.1000,0,0,90.0*
21,1,0.8000,2.1032,0,0,90.0*
1,1,1.0032,0.5500,0.4000*
1,1,1.0032,0.5500,-0.4000*
1,1,1.0032,-0.5500,-0.4000*
1,1,1.0032,-0.5500,0.4000*
%
%ADD38ROUNDEDRECTD38*%
%ADD39O,2.0532X0.8032*%
G04:AMPARAMS|DCode=40|XSize=1.2032mm|YSize=1.1532mm|CornerRadius=0.3391mm|HoleSize=0mm|Usage=FLASHONLY|Rotation=0.000|XOffset=0mm|YOffset=0mm|HoleType=Round|Shape=RoundedRectangle|*
%AMROUNDEDRECTD40*
21,1,1.2032,0.4750,0,0,0.0*
21,1,0.5250,1.1532,0,0,0.0*
1,1,0.6782,0.2625,-0.2375*
1,1,0.6782,-0.2625,-0.2375*
1,1,0.6782,-0.2625,0.2375*
1,1,0.6782,0.2625,0.2375*
%
%ADD40ROUNDEDRECTD40*%
G04:AMPARAMS|DCode=41|XSize=2.0532mm|YSize=1.5032mm|CornerRadius=0.2966mm|HoleSize=0mm|Usage=FLASHONLY|Rotation=0.000|XOffset=0mm|YOffset=0mm|HoleType=Round|Shape=RoundedRectangle|*
%AMROUNDEDRECTD41*
21,1,2.0532,0.9100,0,0,0.0*
21,1,1.4600,1.5032,0,0,0.0*
1,1,0.5932,0.7300,-0.4550*
1,1,0.5932,-0.7300,-0.4550*
1,1,0.5932,-0.7300,0.4550*
1,1,0.5932,0.7300,0.4550*
%
%ADD41ROUNDEDRECTD41*%
G04:AMPARAMS|DCode=42|XSize=1.1032mm|YSize=1.1532mm|CornerRadius=0.2366mm|HoleSize=0mm|Usage=FLASHONLY|Rotation=270.000|XOffset=0mm|YOffset=0mm|HoleType=Round|Shape=RoundedRectangle|*
%AMROUNDEDRECTD42*
21,1,1.1032,0.6800,0,0,270.0*
21,1,0.6300,1.1532,0,0,270.0*
1,1,0.4732,-0.3400,-0.3150*
1,1,0.4732,-0.3400,0.3150*
1,1,0.4732,0.3400,0.3150*
1,1,0.4732,0.3400,-0.3150*
%
%ADD42ROUNDEDRECTD42*%
G04:AMPARAMS|DCode=43|XSize=1.1032mm|YSize=1.1532mm|CornerRadius=0.2366mm|HoleSize=0mm|Usage=FLASHONLY|Rotation=180.000|XOffset=0mm|YOffset=0mm|HoleType=Round|Shape=RoundedRectangle|*
%AMROUNDEDRECTD43*
21,1,1.1032,0.6800,0,0,180.0*
21,1,0.6300,1.1532,0,0,180.0*
1,1,0.4732,-0.3150,0.3400*
1,1,0.4732,0.3150,0.3400*
1,1,0.4732,0.3150,-0.3400*
1,1,0.4732,-0.3150,-0.3400*
%
%ADD43ROUNDEDRECTD43*%
%ADD44C,1.8532*%
%ADD45R,1.8532X1.8532*%
%ADD46C,0.9032*%
G04:AMPARAMS|DCode=47|XSize=0.9032mm|YSize=2.2032mm|CornerRadius=0.2766mm|HoleSize=0mm|Usage=FLASHONLY|Rotation=0.000|XOffset=0mm|YOffset=0mm|HoleType=Round|Shape=RoundedRectangle|*
%AMROUNDEDRECTD47*
21,1,0.9032,1.6500,0,0,0.0*
21,1,0.3500,2.2032,0,0,0.0*
1,1,0.5532,0.1750,-0.8250*
1,1,0.5532,-0.1750,-0.8250*
1,1,0.5532,-0.1750,0.8250*
1,1,0.5532,0.1750,0.8250*
%
%ADD47ROUNDEDRECTD47*%
G04:AMPARAMS|DCode=48|XSize=1.2032mm|YSize=2.8032mm|CornerRadius=0.3516mm|HoleSize=0mm|Usage=FLASHONLY|Rotation=0.000|XOffset=0mm|YOffset=0mm|HoleType=Round|Shape=RoundedRectangle|*
%AMROUNDEDRECTD48*
21,1,1.2032,2.1000,0,0,0.0*
21,1,0.5000,2.8032,0,0,0.0*
1,1,0.7032,0.2500,-1.0500*
1,1,0.7032,-0.2500,-1.0500*
1,1,0.7032,-0.2500,1.0500*
1,1,0.7032,0.2500,1.0500*
%
%ADD48ROUNDEDRECTD48*%
G04:AMPARAMS|DCode=49|XSize=1.7032mm|YSize=2.8032mm|CornerRadius=0.4766mm|HoleSize=0mm|Usage=FLASHONLY|Rotation=0.000|XOffset=0mm|YOffset=0mm|HoleType=Round|Shape=RoundedRectangle|*
%AMROUNDEDRECTD49*
21,1,1.7032,1.8500,0,0,0.0*
21,1,0.7500,2.8032,0,0,0.0*
1,1,0.9532,0.3750,-0.9250*
1,1,0.9532,-0.3750,-0.9250*
1,1,0.9532,-0.3750,0.9250*
1,1,0.9532,0.3750,0.9250*
%
%ADD49ROUNDEDRECTD49*%
G04:AMPARAMS|DCode=50|XSize=2.9032mm|YSize=1.4032mm|CornerRadius=0.4016mm|HoleSize=0mm|Usage=FLASHONLY|Rotation=0.000|XOffset=0mm|YOffset=0mm|HoleType=Round|Shape=RoundedRectangle|*
%AMROUNDEDRECTD50*
21,1,2.9032,0.6000,0,0,0.0*
21,1,2.1000,1.4032,0,0,0.0*
1,1,0.8032,1.0500,-0.3000*
1,1,0.8032,-1.0500,-0.3000*
1,1,0.8032,-1.0500,0.3000*
1,1,0.8032,1.0500,0.3000*
%
%ADD50ROUNDEDRECTD50*%
G04:AMPARAMS|DCode=51|XSize=1.4032mm|YSize=1.4032mm|CornerRadius=0.4016mm|HoleSize=0mm|Usage=FLASHONLY|Rotation=0.000|XOffset=0mm|YOffset=0mm|HoleType=Round|Shape=RoundedRectangle|*
%AMROUNDEDRECTD51*
21,1,1.4032,0.6000,0,0,0.0*
21,1,0.6000,1.4032,0,0,0.0*
1,1,0.8032,0.3000,-0.3000*
1,1,0.8032,-0.3000,-0.3000*
1,1,0.8032,-0.3000,0.3000*
1,1,0.8032,0.3000,0.3000*
%
%ADD51ROUNDEDRECTD51*%
G36*
X1663972Y-680153D02*
X1664157Y-680176D01*
X1664389Y-680222D01*
X1664643Y-680268D01*
X1664944Y-680338D01*
X1665222Y-680407D01*
X1665546Y-680523D01*
X1665847Y-680639D01*
X1666171Y-680800D01*
X1666494Y-680986D01*
X1666819Y-681194D01*
X1667119Y-681448D01*
X1667397Y-681726D01*
X1667420Y-681749D01*
X1667466Y-681796D01*
X1667536Y-681888D01*
X1667628Y-682027D01*
X1667744Y-682189D01*
X1667860Y-682374D01*
X1667999Y-682605D01*
X1668137Y-682883D01*
X1668276Y-683184D01*
X1668415Y-683508D01*
X1668531Y-683878D01*
X1668647Y-684271D01*
X1668739Y-684711D01*
X1668808Y-685174D01*
X1668855Y-685660D01*
X1668878Y-686192D01*
Y-686215D01*
Y-686308D01*
Y-686470D01*
X1668855Y-686701D01*
X1660177D01*
Y-686724D01*
Y-686794D01*
X1660201Y-686886D01*
Y-687025D01*
X1660224Y-687187D01*
X1660270Y-687372D01*
X1660339Y-687789D01*
X1660478Y-688251D01*
X1660663Y-688761D01*
X1660918Y-689223D01*
X1661242Y-689640D01*
X1661265D01*
X1661288Y-689686D01*
X1661427Y-689802D01*
X1661635Y-689964D01*
X1661913Y-690126D01*
X1662283Y-690311D01*
X1662700Y-690473D01*
X1663162Y-690589D01*
X1663417Y-690612D01*
X1663695Y-690635D01*
X1663880D01*
X1664088Y-690612D01*
X1664342Y-690565D01*
X1664620Y-690496D01*
X1664944Y-690403D01*
X1665245Y-690265D01*
X1665546Y-690079D01*
X1665569Y-690056D01*
X1665685Y-689964D01*
X1665824Y-689825D01*
X1665985Y-689640D01*
X1666171Y-689385D01*
X1666379Y-689061D01*
X1666587Y-688691D01*
X1666772Y-688251D01*
X1668808Y-688506D01*
Y-688529D01*
X1668785Y-688575D01*
X1668762Y-688668D01*
X1668716Y-688807D01*
X1668647Y-688946D01*
X1668577Y-689131D01*
X1668392Y-689524D01*
X1668161Y-689964D01*
X1667837Y-690426D01*
X1667466Y-690866D01*
X1667004Y-691283D01*
X1666980D01*
X1666934Y-691329D01*
X1666865Y-691375D01*
X1666772Y-691445D01*
X1666633Y-691514D01*
X1666494Y-691583D01*
X1666309Y-691676D01*
X1666101Y-691769D01*
X1665870Y-691861D01*
X1665638Y-691954D01*
X1665060Y-692093D01*
X1664412Y-692208D01*
X1663695Y-692254D01*
X1663440D01*
X1663278Y-692231D01*
X1663070Y-692208D01*
X1662815Y-692162D01*
X1662538Y-692116D01*
X1662237Y-692069D01*
X1661589Y-691884D01*
X1661242Y-691746D01*
X1660918Y-691607D01*
X1660571Y-691422D01*
X1660247Y-691213D01*
X1659946Y-690982D01*
X1659645Y-690704D01*
X1659622Y-690681D01*
X1659576Y-690635D01*
X1659506Y-690542D01*
X1659414Y-690403D01*
X1659298Y-690241D01*
X1659182Y-690056D01*
X1659044Y-689825D01*
X1658905Y-689570D01*
X1658766Y-689269D01*
X1658627Y-688946D01*
X1658511Y-688575D01*
X1658396Y-688182D01*
X1658303Y-687766D01*
X1658234Y-687303D01*
X1658188Y-686817D01*
X1658164Y-686308D01*
Y-686285D01*
Y-686169D01*
Y-686030D01*
X1658188Y-685822D01*
X1658211Y-685567D01*
X1658234Y-685290D01*
X1658280Y-684966D01*
X1658349Y-684642D01*
X1658535Y-683901D01*
X1658650Y-683531D01*
X1658789Y-683138D01*
X1658974Y-682767D01*
X1659182Y-682420D01*
X1659414Y-682073D01*
X1659668Y-681749D01*
X1659691Y-681726D01*
X1659738Y-681680D01*
X1659830Y-681610D01*
X1659946Y-681495D01*
X1660085Y-681379D01*
X1660270Y-681240D01*
X1660478Y-681078D01*
X1660733Y-680939D01*
X1660987Y-680777D01*
X1661288Y-680639D01*
X1661612Y-680500D01*
X1661959Y-680384D01*
X1662329Y-680268D01*
X1662723Y-680199D01*
X1663139Y-680153D01*
X1663579Y-680129D01*
X1663810D01*
X1663972Y-680153D01*
D02*
G37*
G36*
X1623178D02*
X1623525Y-680176D01*
X1623918Y-680222D01*
X1624311Y-680292D01*
X1624705Y-680384D01*
X1625075Y-680500D01*
X1625121Y-680523D01*
X1625237Y-680569D01*
X1625399Y-680639D01*
X1625607Y-680731D01*
X1625839Y-680870D01*
X1626070Y-681009D01*
X1626278Y-681194D01*
X1626463Y-681379D01*
X1626487Y-681402D01*
X1626533Y-681472D01*
X1626602Y-681587D01*
X1626695Y-681726D01*
X1626810Y-681934D01*
X1626903Y-682143D01*
X1626996Y-682397D01*
X1627065Y-682698D01*
Y-682721D01*
X1627088Y-682791D01*
X1627111Y-682929D01*
X1627134Y-683114D01*
Y-683369D01*
X1627157Y-683670D01*
X1627181Y-684063D01*
Y-684503D01*
Y-687141D01*
Y-687164D01*
Y-687256D01*
Y-687395D01*
Y-687580D01*
Y-687789D01*
Y-688043D01*
X1627204Y-688598D01*
Y-689177D01*
X1627227Y-689755D01*
X1627250Y-690010D01*
Y-690241D01*
X1627273Y-690450D01*
X1627296Y-690612D01*
Y-690635D01*
X1627319Y-690727D01*
X1627343Y-690866D01*
X1627412Y-691051D01*
X1627458Y-691260D01*
X1627551Y-691491D01*
X1627667Y-691746D01*
X1627782Y-692000D01*
X1625723D01*
X1625700Y-691977D01*
X1625677Y-691884D01*
X1625630Y-691769D01*
X1625561Y-691583D01*
X1625491Y-691375D01*
X1625445Y-691121D01*
X1625399Y-690843D01*
X1625353Y-690542D01*
X1625329D01*
X1625306Y-690589D01*
X1625168Y-690704D01*
X1624959Y-690866D01*
X1624682Y-691074D01*
X1624335Y-691283D01*
X1623987Y-691514D01*
X1623617Y-691722D01*
X1623224Y-691884D01*
X1623178Y-691907D01*
X1623039Y-691931D01*
X1622831Y-692000D01*
X1622576Y-692069D01*
X1622252Y-692139D01*
X1621882Y-692185D01*
X1621465Y-692231D01*
X1621049Y-692254D01*
X1620864D01*
X1620725Y-692231D01*
X1620563D01*
X1620378Y-692208D01*
X1619961Y-692139D01*
X1619498Y-692023D01*
X1618989Y-691861D01*
X1618526Y-691630D01*
X1618110Y-691329D01*
X1618064Y-691283D01*
X1617948Y-691167D01*
X1617786Y-690959D01*
X1617601Y-690681D01*
X1617416Y-690334D01*
X1617254Y-689941D01*
X1617138Y-689455D01*
X1617115Y-689223D01*
X1617092Y-688946D01*
Y-688899D01*
Y-688807D01*
X1617115Y-688645D01*
X1617138Y-688437D01*
X1617184Y-688182D01*
X1617254Y-687927D01*
X1617346Y-687650D01*
X1617462Y-687395D01*
X1617485Y-687372D01*
X1617531Y-687280D01*
X1617624Y-687141D01*
X1617740Y-686979D01*
X1617879Y-686794D01*
X1618064Y-686609D01*
X1618249Y-686423D01*
X1618480Y-686261D01*
X1618503Y-686238D01*
X1618596Y-686192D01*
X1618712Y-686099D01*
X1618897Y-686007D01*
X1619105Y-685914D01*
X1619360Y-685799D01*
X1619614Y-685706D01*
X1619915Y-685613D01*
X1619938D01*
X1620031Y-685590D01*
X1620169Y-685544D01*
X1620354Y-685521D01*
X1620586Y-685475D01*
X1620887Y-685428D01*
X1621234Y-685359D01*
X1621650Y-685313D01*
X1621673D01*
X1621766Y-685290D01*
X1621882D01*
X1622044Y-685266D01*
X1622229Y-685243D01*
X1622460Y-685197D01*
X1622715Y-685174D01*
X1622992Y-685128D01*
X1623548Y-685012D01*
X1624149Y-684896D01*
X1624682Y-684757D01*
X1624936Y-684688D01*
X1625168Y-684619D01*
Y-684595D01*
Y-684549D01*
X1625191Y-684410D01*
Y-684248D01*
Y-684156D01*
Y-684109D01*
Y-684086D01*
Y-684063D01*
Y-683924D01*
X1625168Y-683693D01*
X1625121Y-683438D01*
X1625052Y-683161D01*
X1624936Y-682883D01*
X1624797Y-682628D01*
X1624612Y-682420D01*
X1624589Y-682397D01*
X1624473Y-682305D01*
X1624288Y-682212D01*
X1624057Y-682073D01*
X1623733Y-681957D01*
X1623363Y-681842D01*
X1622900Y-681772D01*
X1622368Y-681749D01*
X1622136D01*
X1621905Y-681772D01*
X1621581Y-681819D01*
X1621257Y-681865D01*
X1620910Y-681957D01*
X1620586Y-682073D01*
X1620308Y-682235D01*
X1620285Y-682258D01*
X1620193Y-682328D01*
X1620077Y-682443D01*
X1619938Y-682628D01*
X1619799Y-682860D01*
X1619637Y-683161D01*
X1619498Y-683531D01*
X1619360Y-683948D01*
X1617439Y-683693D01*
Y-683670D01*
X1617462Y-683647D01*
Y-683577D01*
X1617485Y-683485D01*
X1617555Y-683276D01*
X1617647Y-682976D01*
X1617763Y-682675D01*
X1617902Y-682351D01*
X1618087Y-682027D01*
X1618295Y-681726D01*
X1618318Y-681703D01*
X1618411Y-681610D01*
X1618550Y-681472D01*
X1618735Y-681286D01*
X1618989Y-681101D01*
X1619290Y-680916D01*
X1619637Y-680708D01*
X1620031Y-680546D01*
X1620054D01*
X1620077Y-680523D01*
X1620146Y-680500D01*
X1620239Y-680477D01*
X1620470Y-680407D01*
X1620794Y-680338D01*
X1621164Y-680268D01*
X1621627Y-680199D01*
X1622113Y-680153D01*
X1622668Y-680129D01*
X1622923D01*
X1623178Y-680153D01*
D02*
G37*
G36*
X2002610Y-676232D02*
X2000643D01*
Y-673988D01*
X2002610D01*
Y-676232D01*
D02*
G37*
G36*
X1708886Y-692000D02*
Y-692023D01*
Y-692046D01*
Y-692116D01*
Y-692208D01*
X1708863Y-692417D01*
X1708840Y-692717D01*
X1708770Y-693018D01*
X1708701Y-693365D01*
X1708585Y-693689D01*
X1708446Y-693990D01*
X1708423Y-694013D01*
X1708354Y-694106D01*
X1708261Y-694245D01*
X1708099Y-694430D01*
X1707914Y-694615D01*
X1707683Y-694800D01*
X1707382Y-695008D01*
X1707058Y-695170D01*
X1706503Y-694337D01*
X1706526Y-694314D01*
X1706595Y-694291D01*
X1706711Y-694221D01*
X1706850Y-694129D01*
X1706989Y-694013D01*
X1707150Y-693874D01*
X1707289Y-693712D01*
X1707405Y-693527D01*
X1707428Y-693504D01*
X1707451Y-693435D01*
X1707498Y-693296D01*
X1707567Y-693134D01*
X1707613Y-692926D01*
X1707683Y-692648D01*
X1707729Y-692347D01*
X1707752Y-692000D01*
X1706641D01*
Y-689755D01*
X1708886D01*
Y-692000D01*
D02*
G37*
G36*
X1646826Y-680153D02*
X1647173Y-680176D01*
X1647567Y-680222D01*
X1647960Y-680292D01*
X1648353Y-680384D01*
X1648723Y-680500D01*
X1648770Y-680523D01*
X1648885Y-680569D01*
X1649047Y-680639D01*
X1649256Y-680731D01*
X1649487Y-680870D01*
X1649718Y-681009D01*
X1649927Y-681194D01*
X1650112Y-681379D01*
X1650135Y-681402D01*
X1650181Y-681472D01*
X1650251Y-681587D01*
X1650343Y-681726D01*
X1650459Y-681934D01*
X1650551Y-682143D01*
X1650644Y-682397D01*
X1650713Y-682698D01*
Y-682721D01*
X1650737Y-682791D01*
X1650760Y-682929D01*
X1650783Y-683114D01*
Y-683369D01*
X1650806Y-683670D01*
X1650829Y-684063D01*
Y-684503D01*
Y-687141D01*
Y-687164D01*
Y-687256D01*
Y-687395D01*
Y-687580D01*
Y-687789D01*
Y-688043D01*
X1650852Y-688598D01*
Y-689177D01*
X1650875Y-689755D01*
X1650899Y-690010D01*
Y-690241D01*
X1650922Y-690450D01*
X1650945Y-690612D01*
Y-690635D01*
X1650968Y-690727D01*
X1650991Y-690866D01*
X1651060Y-691051D01*
X1651107Y-691260D01*
X1651199Y-691491D01*
X1651315Y-691746D01*
X1651431Y-692000D01*
X1649371D01*
X1649348Y-691977D01*
X1649325Y-691884D01*
X1649279Y-691769D01*
X1649209Y-691583D01*
X1649140Y-691375D01*
X1649094Y-691121D01*
X1649047Y-690843D01*
X1649001Y-690542D01*
X1648978D01*
X1648955Y-690589D01*
X1648816Y-690704D01*
X1648608Y-690866D01*
X1648330Y-691074D01*
X1647983Y-691283D01*
X1647636Y-691514D01*
X1647266Y-691722D01*
X1646872Y-691884D01*
X1646826Y-691907D01*
X1646687Y-691931D01*
X1646479Y-692000D01*
X1646224Y-692069D01*
X1645900Y-692139D01*
X1645530Y-692185D01*
X1645114Y-692231D01*
X1644697Y-692254D01*
X1644512D01*
X1644373Y-692231D01*
X1644211D01*
X1644026Y-692208D01*
X1643610Y-692139D01*
X1643147Y-692023D01*
X1642638Y-691861D01*
X1642175Y-691630D01*
X1641759Y-691329D01*
X1641712Y-691283D01*
X1641597Y-691167D01*
X1641434Y-690959D01*
X1641249Y-690681D01*
X1641064Y-690334D01*
X1640902Y-689941D01*
X1640787Y-689455D01*
X1640764Y-689223D01*
X1640740Y-688946D01*
Y-688899D01*
Y-688807D01*
X1640764Y-688645D01*
X1640787Y-688437D01*
X1640833Y-688182D01*
X1640902Y-687927D01*
X1640995Y-687650D01*
X1641111Y-687395D01*
X1641134Y-687372D01*
X1641180Y-687280D01*
X1641273Y-687141D01*
X1641388Y-686979D01*
X1641527Y-686794D01*
X1641712Y-686609D01*
X1641897Y-686423D01*
X1642129Y-686261D01*
X1642152Y-686238D01*
X1642244Y-686192D01*
X1642360Y-686099D01*
X1642545Y-686007D01*
X1642753Y-685914D01*
X1643008Y-685799D01*
X1643263Y-685706D01*
X1643563Y-685613D01*
X1643586D01*
X1643679Y-685590D01*
X1643818Y-685544D01*
X1644003Y-685521D01*
X1644234Y-685475D01*
X1644535Y-685428D01*
X1644882Y-685359D01*
X1645299Y-685313D01*
X1645322D01*
X1645414Y-685290D01*
X1645530D01*
X1645692Y-685266D01*
X1645877Y-685243D01*
X1646109Y-685197D01*
X1646363Y-685174D01*
X1646641Y-685128D01*
X1647196Y-685012D01*
X1647798Y-684896D01*
X1648330Y-684757D01*
X1648585Y-684688D01*
X1648816Y-684619D01*
Y-684595D01*
Y-684549D01*
X1648839Y-684410D01*
Y-684248D01*
Y-684156D01*
Y-684109D01*
Y-684086D01*
Y-684063D01*
Y-683924D01*
X1648816Y-683693D01*
X1648770Y-683438D01*
X1648700Y-683161D01*
X1648585Y-682883D01*
X1648446Y-682628D01*
X1648261Y-682420D01*
X1648237Y-682397D01*
X1648122Y-682305D01*
X1647937Y-682212D01*
X1647705Y-682073D01*
X1647381Y-681957D01*
X1647011Y-681842D01*
X1646548Y-681772D01*
X1646016Y-681749D01*
X1645785D01*
X1645553Y-681772D01*
X1645229Y-681819D01*
X1644905Y-681865D01*
X1644558Y-681957D01*
X1644234Y-682073D01*
X1643957Y-682235D01*
X1643934Y-682258D01*
X1643841Y-682328D01*
X1643725Y-682443D01*
X1643586Y-682628D01*
X1643448Y-682860D01*
X1643286Y-683161D01*
X1643147Y-683531D01*
X1643008Y-683948D01*
X1641087Y-683693D01*
Y-683670D01*
X1641111Y-683647D01*
Y-683577D01*
X1641134Y-683485D01*
X1641203Y-683276D01*
X1641296Y-682976D01*
X1641411Y-682675D01*
X1641550Y-682351D01*
X1641735Y-682027D01*
X1641944Y-681726D01*
X1641967Y-681703D01*
X1642059Y-681610D01*
X1642198Y-681472D01*
X1642383Y-681286D01*
X1642638Y-681101D01*
X1642939Y-680916D01*
X1643286Y-680708D01*
X1643679Y-680546D01*
X1643702D01*
X1643725Y-680523D01*
X1643795Y-680500D01*
X1643887Y-680477D01*
X1644119Y-680407D01*
X1644443Y-680338D01*
X1644813Y-680268D01*
X1645276Y-680199D01*
X1645762Y-680153D01*
X1646317Y-680129D01*
X1646572D01*
X1646826Y-680153D01*
D02*
G37*
G36*
X1685654Y-692000D02*
X1683687D01*
Y-675987D01*
X1685654D01*
Y-692000D01*
D02*
G37*
G36*
X1690675D02*
X1688708D01*
Y-680384D01*
X1690675D01*
Y-692000D01*
D02*
G37*
G36*
X1655781D02*
X1653814D01*
Y-675987D01*
X1655781D01*
Y-692000D01*
D02*
G37*
G36*
X1673251Y-681726D02*
X1673274Y-681703D01*
X1673321Y-681657D01*
X1673390Y-681587D01*
X1673506Y-681472D01*
X1673621Y-681356D01*
X1673783Y-681217D01*
X1673992Y-681078D01*
X1674200Y-680916D01*
X1674431Y-680777D01*
X1674686Y-680639D01*
X1675287Y-680384D01*
X1675611Y-680268D01*
X1675959Y-680199D01*
X1676329Y-680153D01*
X1676699Y-680129D01*
X1676907D01*
X1677162Y-680153D01*
X1677463Y-680199D01*
X1677810Y-680245D01*
X1678180Y-680338D01*
X1678550Y-680477D01*
X1678920Y-680639D01*
X1678967Y-680662D01*
X1679082Y-680731D01*
X1679244Y-680847D01*
X1679453Y-681009D01*
X1679661Y-681217D01*
X1679892Y-681448D01*
X1680101Y-681726D01*
X1680286Y-682050D01*
X1680309Y-682096D01*
X1680355Y-682212D01*
X1680424Y-682420D01*
X1680494Y-682721D01*
X1680563Y-683091D01*
X1680633Y-683531D01*
X1680679Y-684063D01*
X1680702Y-684665D01*
Y-692000D01*
X1678735D01*
Y-684642D01*
Y-684619D01*
Y-684572D01*
Y-684503D01*
Y-684410D01*
X1678712Y-684156D01*
X1678666Y-683832D01*
X1678573Y-683485D01*
X1678458Y-683138D01*
X1678296Y-682791D01*
X1678087Y-682513D01*
X1678064Y-682490D01*
X1677972Y-682397D01*
X1677833Y-682281D01*
X1677625Y-682166D01*
X1677370Y-682027D01*
X1677069Y-681934D01*
X1676699Y-681842D01*
X1676283Y-681819D01*
X1676144D01*
X1675982Y-681842D01*
X1675750Y-681865D01*
X1675519Y-681934D01*
X1675241Y-682004D01*
X1674964Y-682120D01*
X1674663Y-682281D01*
X1674640Y-682305D01*
X1674547Y-682374D01*
X1674408Y-682467D01*
X1674246Y-682605D01*
X1674061Y-682791D01*
X1673876Y-682999D01*
X1673714Y-683253D01*
X1673575Y-683531D01*
X1673552Y-683577D01*
X1673529Y-683670D01*
X1673483Y-683855D01*
X1673413Y-684086D01*
X1673344Y-684387D01*
X1673297Y-684757D01*
X1673274Y-685174D01*
X1673251Y-685660D01*
Y-692000D01*
X1671284D01*
Y-675987D01*
X1673251D01*
Y-681726D01*
D02*
G37*
G36*
X1954411Y-678384D02*
X1956401D01*
Y-679911D01*
X1954411D01*
Y-686737D01*
Y-686784D01*
Y-686876D01*
Y-687015D01*
X1954434Y-687177D01*
X1954457Y-687547D01*
X1954480Y-687709D01*
X1954503Y-687825D01*
X1954527Y-687871D01*
X1954596Y-687964D01*
X1954689Y-688079D01*
X1954850Y-688195D01*
X1954897Y-688218D01*
X1955013Y-688264D01*
X1955221Y-688311D01*
X1955522Y-688334D01*
X1955753D01*
X1955869Y-688311D01*
X1956031D01*
X1956216Y-688288D01*
X1956401Y-688264D01*
X1956655Y-690000D01*
X1956609D01*
X1956517Y-690023D01*
X1956355Y-690046D01*
X1956146Y-690069D01*
X1955915Y-690116D01*
X1955660Y-690139D01*
X1955151Y-690162D01*
X1954966D01*
X1954781Y-690139D01*
X1954550Y-690116D01*
X1954272Y-690092D01*
X1953994Y-690023D01*
X1953740Y-689954D01*
X1953485Y-689838D01*
X1953462Y-689815D01*
X1953393Y-689769D01*
X1953300Y-689699D01*
X1953161Y-689584D01*
X1953046Y-689468D01*
X1952907Y-689306D01*
X1952768Y-689144D01*
X1952675Y-688936D01*
Y-688912D01*
X1952629Y-688820D01*
X1952606Y-688658D01*
X1952560Y-688427D01*
X1952513Y-688126D01*
X1952490Y-687941D01*
Y-687732D01*
X1952467Y-687478D01*
X1952444Y-687223D01*
Y-686946D01*
Y-686622D01*
Y-679911D01*
X1950986D01*
Y-678384D01*
X1952444D01*
Y-675515D01*
X1954411Y-674335D01*
Y-678384D01*
D02*
G37*
G36*
X1945086Y-678153D02*
X1945433Y-678176D01*
X1945826Y-678222D01*
X1946219Y-678291D01*
X1946613Y-678384D01*
X1946983Y-678500D01*
X1947029Y-678523D01*
X1947145Y-678569D01*
X1947307Y-678639D01*
X1947515Y-678731D01*
X1947747Y-678870D01*
X1947978Y-679009D01*
X1948186Y-679194D01*
X1948371Y-679379D01*
X1948395Y-679402D01*
X1948441Y-679472D01*
X1948510Y-679587D01*
X1948603Y-679726D01*
X1948719Y-679934D01*
X1948811Y-680143D01*
X1948904Y-680397D01*
X1948973Y-680698D01*
Y-680721D01*
X1948996Y-680790D01*
X1949019Y-680929D01*
X1949043Y-681115D01*
Y-681369D01*
X1949066Y-681670D01*
X1949089Y-682063D01*
Y-682503D01*
Y-685141D01*
Y-685164D01*
Y-685256D01*
Y-685395D01*
Y-685580D01*
Y-685789D01*
Y-686043D01*
X1949112Y-686599D01*
Y-687177D01*
X1949135Y-687756D01*
X1949158Y-688010D01*
Y-688241D01*
X1949181Y-688450D01*
X1949205Y-688612D01*
Y-688635D01*
X1949228Y-688727D01*
X1949251Y-688866D01*
X1949320Y-689051D01*
X1949366Y-689259D01*
X1949459Y-689491D01*
X1949575Y-689745D01*
X1949690Y-690000D01*
X1947631D01*
X1947608Y-689977D01*
X1947585Y-689884D01*
X1947538Y-689769D01*
X1947469Y-689584D01*
X1947400Y-689375D01*
X1947353Y-689121D01*
X1947307Y-688843D01*
X1947261Y-688542D01*
X1947238D01*
X1947215Y-688588D01*
X1947076Y-688704D01*
X1946867Y-688866D01*
X1946590Y-689074D01*
X1946243Y-689283D01*
X1945896Y-689514D01*
X1945525Y-689722D01*
X1945132Y-689884D01*
X1945086Y-689907D01*
X1944947Y-689931D01*
X1944739Y-690000D01*
X1944484Y-690069D01*
X1944160Y-690139D01*
X1943790Y-690185D01*
X1943373Y-690231D01*
X1942957Y-690255D01*
X1942772D01*
X1942633Y-690231D01*
X1942471D01*
X1942286Y-690208D01*
X1941869Y-690139D01*
X1941407Y-690023D01*
X1940897Y-689861D01*
X1940435Y-689630D01*
X1940018Y-689329D01*
X1939972Y-689283D01*
X1939856Y-689167D01*
X1939694Y-688959D01*
X1939509Y-688681D01*
X1939324Y-688334D01*
X1939162Y-687941D01*
X1939046Y-687455D01*
X1939023Y-687223D01*
X1939000Y-686946D01*
Y-686899D01*
Y-686807D01*
X1939023Y-686645D01*
X1939046Y-686436D01*
X1939093Y-686182D01*
X1939162Y-685928D01*
X1939254Y-685650D01*
X1939370Y-685395D01*
X1939393Y-685372D01*
X1939440Y-685280D01*
X1939532Y-685141D01*
X1939648Y-684979D01*
X1939787Y-684794D01*
X1939972Y-684609D01*
X1940157Y-684423D01*
X1940388Y-684261D01*
X1940412Y-684238D01*
X1940504Y-684192D01*
X1940620Y-684099D01*
X1940805Y-684007D01*
X1941013Y-683914D01*
X1941268Y-683799D01*
X1941522Y-683706D01*
X1941823Y-683614D01*
X1941846D01*
X1941939Y-683590D01*
X1942077Y-683544D01*
X1942263Y-683521D01*
X1942494Y-683475D01*
X1942795Y-683428D01*
X1943142Y-683359D01*
X1943559Y-683313D01*
X1943582D01*
X1943674Y-683290D01*
X1943790D01*
X1943952Y-683266D01*
X1944137Y-683243D01*
X1944368Y-683197D01*
X1944623Y-683174D01*
X1944901Y-683128D01*
X1945456Y-683012D01*
X1946057Y-682896D01*
X1946590Y-682757D01*
X1946844Y-682688D01*
X1947076Y-682618D01*
Y-682595D01*
Y-682549D01*
X1947099Y-682410D01*
Y-682248D01*
Y-682156D01*
Y-682110D01*
Y-682086D01*
Y-682063D01*
Y-681924D01*
X1947076Y-681693D01*
X1947029Y-681438D01*
X1946960Y-681161D01*
X1946844Y-680883D01*
X1946705Y-680629D01*
X1946520Y-680420D01*
X1946497Y-680397D01*
X1946382Y-680305D01*
X1946196Y-680212D01*
X1945965Y-680073D01*
X1945641Y-679958D01*
X1945271Y-679842D01*
X1944808Y-679772D01*
X1944276Y-679749D01*
X1944044D01*
X1943813Y-679772D01*
X1943489Y-679819D01*
X1943165Y-679865D01*
X1942818Y-679958D01*
X1942494Y-680073D01*
X1942216Y-680235D01*
X1942193Y-680258D01*
X1942101Y-680328D01*
X1941985Y-680443D01*
X1941846Y-680629D01*
X1941707Y-680860D01*
X1941545Y-681161D01*
X1941407Y-681531D01*
X1941268Y-681947D01*
X1939347Y-681693D01*
Y-681670D01*
X1939370Y-681647D01*
Y-681577D01*
X1939393Y-681485D01*
X1939463Y-681276D01*
X1939555Y-680976D01*
X1939671Y-680675D01*
X1939810Y-680351D01*
X1939995Y-680027D01*
X1940203Y-679726D01*
X1940226Y-679703D01*
X1940319Y-679610D01*
X1940458Y-679472D01*
X1940643Y-679286D01*
X1940897Y-679101D01*
X1941198Y-678916D01*
X1941545Y-678708D01*
X1941939Y-678546D01*
X1941962D01*
X1941985Y-678523D01*
X1942054Y-678500D01*
X1942147Y-678477D01*
X1942378Y-678407D01*
X1942702Y-678338D01*
X1943073Y-678268D01*
X1943535Y-678199D01*
X1944021Y-678153D01*
X1944577Y-678130D01*
X1944831D01*
X1945086Y-678153D01*
D02*
G37*
G36*
X2531163Y-838000D02*
X2529196D01*
Y-825482D01*
X2529173Y-825505D01*
X2529057Y-825597D01*
X2528918Y-825736D01*
X2528687Y-825898D01*
X2528432Y-826106D01*
X2528108Y-826338D01*
X2527738Y-826592D01*
X2527321Y-826847D01*
X2527298D01*
X2527275Y-826870D01*
X2527136Y-826963D01*
X2526905Y-827078D01*
X2526627Y-827217D01*
X2526303Y-827379D01*
X2525956Y-827541D01*
X2525609Y-827703D01*
X2525262Y-827842D01*
Y-825944D01*
X2525285D01*
X2525331Y-825898D01*
X2525424Y-825875D01*
X2525540Y-825806D01*
X2525679Y-825736D01*
X2525840Y-825644D01*
X2526234Y-825412D01*
X2526697Y-825158D01*
X2527159Y-824834D01*
X2527645Y-824464D01*
X2528131Y-824070D01*
X2528154Y-824047D01*
X2528177Y-824024D01*
X2528247Y-823954D01*
X2528340Y-823885D01*
X2528548Y-823654D01*
X2528825Y-823376D01*
X2529103Y-823052D01*
X2529404Y-822682D01*
X2529659Y-822311D01*
X2529890Y-821918D01*
X2531163D01*
Y-838000D01*
D02*
G37*
G36*
X2516400D02*
X2514178D01*
X2507977Y-821988D01*
X2510291D01*
X2514456Y-833627D01*
Y-833650D01*
X2514479Y-833696D01*
X2514502Y-833765D01*
X2514548Y-833858D01*
X2514572Y-833997D01*
X2514618Y-834136D01*
X2514734Y-834483D01*
X2514872Y-834876D01*
X2515011Y-835316D01*
X2515289Y-836241D01*
Y-836218D01*
X2515312Y-836172D01*
X2515335Y-836103D01*
X2515358Y-836010D01*
X2515428Y-835755D01*
X2515543Y-835408D01*
X2515659Y-835015D01*
X2515798Y-834575D01*
X2515960Y-834113D01*
X2516145Y-833627D01*
X2520495Y-821988D01*
X2522647D01*
X2516400Y-838000D01*
D02*
G37*
G36*
X2002610Y-690000D02*
X2000643D01*
Y-678384D01*
X2002610D01*
Y-690000D01*
D02*
G37*
G36*
X1993725Y-678153D02*
X1994072Y-678176D01*
X1994442Y-678222D01*
X1994835Y-678315D01*
X1995252Y-678407D01*
X1995645Y-678546D01*
X1995668D01*
X1995692Y-678569D01*
X1995807Y-678615D01*
X1995992Y-678708D01*
X1996224Y-678824D01*
X1996478Y-678986D01*
X1996733Y-679171D01*
X1996964Y-679379D01*
X1997173Y-679610D01*
X1997196Y-679633D01*
X1997242Y-679726D01*
X1997334Y-679888D01*
X1997450Y-680073D01*
X1997566Y-680351D01*
X1997681Y-680652D01*
X1997774Y-680999D01*
X1997867Y-681392D01*
X1995946Y-681647D01*
Y-681600D01*
X1995923Y-681508D01*
X1995877Y-681346D01*
X1995807Y-681138D01*
X1995692Y-680929D01*
X1995553Y-680698D01*
X1995391Y-680467D01*
X1995159Y-680258D01*
X1995136Y-680235D01*
X1995044Y-680189D01*
X1994905Y-680096D01*
X1994697Y-680004D01*
X1994465Y-679911D01*
X1994164Y-679819D01*
X1993794Y-679772D01*
X1993401Y-679749D01*
X1993169D01*
X1992938Y-679772D01*
X1992637Y-679796D01*
X1992336Y-679865D01*
X1992012Y-679934D01*
X1991712Y-680050D01*
X1991457Y-680212D01*
X1991434Y-680235D01*
X1991364Y-680281D01*
X1991272Y-680374D01*
X1991179Y-680513D01*
X1991064Y-680652D01*
X1990971Y-680837D01*
X1990902Y-681045D01*
X1990878Y-681253D01*
Y-681276D01*
Y-681323D01*
X1990902Y-681392D01*
Y-681485D01*
X1990971Y-681716D01*
X1991110Y-681947D01*
X1991133Y-681971D01*
X1991156Y-681994D01*
X1991203Y-682063D01*
X1991295Y-682133D01*
X1991388Y-682202D01*
X1991526Y-682295D01*
X1991688Y-682364D01*
X1991873Y-682457D01*
X1991897D01*
X1991943Y-682480D01*
X1992036Y-682503D01*
X1992198Y-682572D01*
X1992429Y-682642D01*
X1992730Y-682711D01*
X1992915Y-682781D01*
X1993123Y-682827D01*
X1993354Y-682896D01*
X1993609Y-682966D01*
X1993632D01*
X1993701Y-682989D01*
X1993817Y-683012D01*
X1993956Y-683058D01*
X1994118Y-683104D01*
X1994326Y-683151D01*
X1994766Y-683290D01*
X1995252Y-683428D01*
X1995738Y-683590D01*
X1996178Y-683752D01*
X1996363Y-683822D01*
X1996525Y-683891D01*
X1996571Y-683914D01*
X1996663Y-683961D01*
X1996802Y-684030D01*
X1997010Y-684146D01*
X1997219Y-684285D01*
X1997427Y-684470D01*
X1997635Y-684678D01*
X1997820Y-684909D01*
X1997843Y-684932D01*
X1997890Y-685025D01*
X1997982Y-685164D01*
X1998075Y-685372D01*
X1998144Y-685627D01*
X1998237Y-685904D01*
X1998283Y-686228D01*
X1998306Y-686599D01*
Y-686645D01*
Y-686760D01*
X1998283Y-686946D01*
X1998237Y-687200D01*
X1998168Y-687478D01*
X1998052Y-687779D01*
X1997913Y-688126D01*
X1997728Y-688450D01*
X1997705Y-688496D01*
X1997612Y-688588D01*
X1997496Y-688751D01*
X1997311Y-688936D01*
X1997057Y-689144D01*
X1996779Y-689375D01*
X1996455Y-689584D01*
X1996062Y-689792D01*
X1996039D01*
X1996015Y-689815D01*
X1995877Y-689861D01*
X1995645Y-689931D01*
X1995344Y-690023D01*
X1994974Y-690116D01*
X1994558Y-690185D01*
X1994118Y-690231D01*
X1993609Y-690255D01*
X1993401D01*
X1993239Y-690231D01*
X1993054D01*
X1992822Y-690208D01*
X1992591Y-690185D01*
X1992336Y-690139D01*
X1991781Y-690023D01*
X1991203Y-689861D01*
X1990647Y-689630D01*
X1990393Y-689491D01*
X1990161Y-689329D01*
X1990138Y-689306D01*
X1990115Y-689283D01*
X1989976Y-689144D01*
X1989768Y-688936D01*
X1989536Y-688612D01*
X1989282Y-688218D01*
X1989027Y-687756D01*
X1988819Y-687177D01*
X1988657Y-686529D01*
X1990601Y-686228D01*
Y-686251D01*
Y-686274D01*
X1990647Y-686413D01*
X1990693Y-686645D01*
X1990786Y-686899D01*
X1990902Y-687177D01*
X1991040Y-687478D01*
X1991249Y-687779D01*
X1991503Y-688033D01*
X1991550Y-688056D01*
X1991642Y-688126D01*
X1991827Y-688218D01*
X1992059Y-688334D01*
X1992359Y-688450D01*
X1992707Y-688542D01*
X1993123Y-688612D01*
X1993609Y-688635D01*
X1993840D01*
X1994072Y-688612D01*
X1994373Y-688565D01*
X1994697Y-688496D01*
X1995044Y-688403D01*
X1995344Y-688288D01*
X1995622Y-688103D01*
X1995645Y-688079D01*
X1995738Y-688010D01*
X1995830Y-687894D01*
X1995969Y-687732D01*
X1996085Y-687547D01*
X1996201Y-687316D01*
X1996270Y-687084D01*
X1996293Y-686807D01*
Y-686784D01*
Y-686691D01*
X1996270Y-686575D01*
X1996224Y-686413D01*
X1996154Y-686251D01*
X1996039Y-686089D01*
X1995900Y-685904D01*
X1995692Y-685766D01*
X1995668Y-685742D01*
X1995599Y-685719D01*
X1995483Y-685650D01*
X1995298Y-685580D01*
X1995020Y-685488D01*
X1994859Y-685418D01*
X1994673Y-685372D01*
X1994465Y-685303D01*
X1994234Y-685233D01*
X1993979Y-685164D01*
X1993678Y-685094D01*
X1993655D01*
X1993586Y-685071D01*
X1993470Y-685048D01*
X1993331Y-685002D01*
X1993146Y-684956D01*
X1992938Y-684886D01*
X1992498Y-684771D01*
X1991989Y-684609D01*
X1991503Y-684470D01*
X1991040Y-684308D01*
X1990832Y-684215D01*
X1990670Y-684146D01*
X1990624Y-684123D01*
X1990531Y-684076D01*
X1990393Y-683984D01*
X1990208Y-683868D01*
X1989999Y-683706D01*
X1989791Y-683521D01*
X1989583Y-683313D01*
X1989398Y-683058D01*
X1989375Y-683035D01*
X1989328Y-682943D01*
X1989259Y-682781D01*
X1989189Y-682595D01*
X1989120Y-682364D01*
X1989050Y-682086D01*
X1989004Y-681809D01*
X1988981Y-681485D01*
Y-681438D01*
Y-681346D01*
X1989004Y-681207D01*
X1989027Y-680999D01*
X1989074Y-680790D01*
X1989120Y-680536D01*
X1989212Y-680305D01*
X1989328Y-680050D01*
X1989351Y-680027D01*
X1989398Y-679934D01*
X1989467Y-679819D01*
X1989583Y-679657D01*
X1989722Y-679495D01*
X1989884Y-679286D01*
X1990069Y-679101D01*
X1990300Y-678939D01*
X1990323Y-678916D01*
X1990393Y-678893D01*
X1990485Y-678824D01*
X1990624Y-678754D01*
X1990809Y-678662D01*
X1991017Y-678569D01*
X1991272Y-678477D01*
X1991550Y-678384D01*
X1991596Y-678361D01*
X1991688Y-678338D01*
X1991850Y-678291D01*
X1992059Y-678245D01*
X1992313Y-678199D01*
X1992591Y-678176D01*
X1992915Y-678130D01*
X1993470D01*
X1993725Y-678153D01*
D02*
G37*
G36*
X1970770D02*
X1970932D01*
X1971094Y-678176D01*
X1971488Y-678245D01*
X1971904Y-678361D01*
X1972344Y-678546D01*
X1972784Y-678777D01*
X1973154Y-679101D01*
X1973200Y-679148D01*
X1973293Y-679286D01*
X1973455Y-679495D01*
X1973524Y-679657D01*
X1973617Y-679819D01*
X1973709Y-680027D01*
X1973779Y-680235D01*
X1973871Y-680467D01*
X1973940Y-680744D01*
X1973987Y-681022D01*
X1974033Y-681346D01*
X1974079Y-681670D01*
Y-682040D01*
Y-690000D01*
X1972112D01*
Y-682711D01*
Y-682688D01*
Y-682665D01*
Y-682526D01*
Y-682318D01*
X1972089Y-682063D01*
X1972066Y-681786D01*
X1972043Y-681508D01*
X1971997Y-681230D01*
X1971927Y-681022D01*
Y-680999D01*
X1971881Y-680929D01*
X1971835Y-680837D01*
X1971765Y-680721D01*
X1971673Y-680582D01*
X1971557Y-680443D01*
X1971418Y-680305D01*
X1971233Y-680166D01*
X1971210Y-680143D01*
X1971141Y-680119D01*
X1971048Y-680073D01*
X1970886Y-680004D01*
X1970724Y-679934D01*
X1970516Y-679888D01*
X1970308Y-679865D01*
X1970053Y-679842D01*
X1969937D01*
X1969845Y-679865D01*
X1969613Y-679888D01*
X1969336Y-679934D01*
X1969012Y-680050D01*
X1968665Y-680189D01*
X1968318Y-680397D01*
X1967994Y-680675D01*
X1967970Y-680721D01*
X1967878Y-680837D01*
X1967739Y-681022D01*
X1967600Y-681300D01*
X1967438Y-681670D01*
X1967323Y-682110D01*
X1967230Y-682642D01*
X1967184Y-683266D01*
Y-690000D01*
X1965217D01*
Y-682480D01*
Y-682457D01*
Y-682410D01*
Y-682364D01*
Y-682271D01*
X1965194Y-682017D01*
X1965148Y-681739D01*
X1965101Y-681415D01*
X1965009Y-681091D01*
X1964893Y-680790D01*
X1964731Y-680513D01*
X1964708Y-680490D01*
X1964639Y-680397D01*
X1964523Y-680305D01*
X1964361Y-680166D01*
X1964153Y-680050D01*
X1963875Y-679934D01*
X1963551Y-679865D01*
X1963158Y-679842D01*
X1963019D01*
X1962857Y-679865D01*
X1962672Y-679888D01*
X1962440Y-679958D01*
X1962162Y-680027D01*
X1961908Y-680143D01*
X1961630Y-680281D01*
X1961607Y-680305D01*
X1961515Y-680374D01*
X1961399Y-680467D01*
X1961237Y-680605D01*
X1961075Y-680790D01*
X1960913Y-681022D01*
X1960751Y-681276D01*
X1960612Y-681577D01*
X1960589Y-681624D01*
X1960566Y-681739D01*
X1960520Y-681924D01*
X1960450Y-682179D01*
X1960381Y-682526D01*
X1960334Y-682943D01*
X1960311Y-683428D01*
X1960288Y-683984D01*
Y-690000D01*
X1958321D01*
Y-678384D01*
X1960080D01*
Y-680050D01*
X1960103Y-680004D01*
X1960173Y-679911D01*
X1960311Y-679749D01*
X1960473Y-679564D01*
X1960682Y-679333D01*
X1960936Y-679101D01*
X1961214Y-678870D01*
X1961538Y-678662D01*
X1961584Y-678639D01*
X1961700Y-678569D01*
X1961885Y-678500D01*
X1962139Y-678384D01*
X1962440Y-678291D01*
X1962787Y-678222D01*
X1963181Y-678153D01*
X1963597Y-678130D01*
X1963805D01*
X1964060Y-678153D01*
X1964338Y-678199D01*
X1964685Y-678268D01*
X1965032Y-678361D01*
X1965379Y-678500D01*
X1965703Y-678685D01*
X1965749Y-678708D01*
X1965842Y-678777D01*
X1965981Y-678893D01*
X1966166Y-679078D01*
X1966351Y-679286D01*
X1966559Y-679541D01*
X1966744Y-679842D01*
X1966883Y-680189D01*
X1966906Y-680166D01*
X1966952Y-680096D01*
X1967022Y-680004D01*
X1967137Y-679865D01*
X1967276Y-679703D01*
X1967438Y-679541D01*
X1967623Y-679356D01*
X1967855Y-679148D01*
X1968109Y-678962D01*
X1968364Y-678777D01*
X1968665Y-678615D01*
X1968989Y-678453D01*
X1969336Y-678315D01*
X1969706Y-678222D01*
X1970076Y-678153D01*
X1970493Y-678130D01*
X1970655D01*
X1970770Y-678153D01*
D02*
G37*
G36*
X1986366Y-690000D02*
X1984608D01*
Y-688311D01*
X1984585Y-688334D01*
X1984538Y-688403D01*
X1984469Y-688496D01*
X1984353Y-688612D01*
X1984214Y-688751D01*
X1984052Y-688936D01*
X1983867Y-689098D01*
X1983636Y-689283D01*
X1983381Y-689468D01*
X1983104Y-689630D01*
X1982803Y-689792D01*
X1982479Y-689954D01*
X1982109Y-690069D01*
X1981738Y-690162D01*
X1981322Y-690231D01*
X1980905Y-690255D01*
X1980744D01*
X1980535Y-690231D01*
X1980281Y-690208D01*
X1979980Y-690162D01*
X1979656Y-690092D01*
X1979332Y-690000D01*
X1978985Y-689861D01*
X1978939Y-689838D01*
X1978846Y-689792D01*
X1978684Y-689699D01*
X1978499Y-689584D01*
X1978268Y-689445D01*
X1978059Y-689283D01*
X1977851Y-689098D01*
X1977666Y-688889D01*
X1977643Y-688866D01*
X1977596Y-688774D01*
X1977527Y-688658D01*
X1977435Y-688473D01*
X1977319Y-688264D01*
X1977226Y-688010D01*
X1977134Y-687732D01*
X1977064Y-687431D01*
Y-687408D01*
X1977041Y-687316D01*
X1977018Y-687177D01*
Y-686992D01*
X1976995Y-686714D01*
X1976972Y-686413D01*
X1976949Y-686020D01*
Y-685580D01*
Y-678384D01*
X1978916D01*
Y-684840D01*
Y-684863D01*
Y-684909D01*
Y-684979D01*
Y-685094D01*
Y-685349D01*
X1978939Y-685673D01*
Y-686020D01*
X1978962Y-686367D01*
X1978985Y-686668D01*
X1979031Y-686923D01*
Y-686946D01*
X1979077Y-687038D01*
X1979124Y-687177D01*
X1979193Y-687362D01*
X1979309Y-687547D01*
X1979448Y-687756D01*
X1979610Y-687941D01*
X1979818Y-688126D01*
X1979841Y-688149D01*
X1979934Y-688195D01*
X1980049Y-688264D01*
X1980234Y-688334D01*
X1980443Y-688427D01*
X1980697Y-688496D01*
X1980975Y-688542D01*
X1981299Y-688565D01*
X1981461D01*
X1981623Y-688542D01*
X1981831Y-688519D01*
X1982086Y-688450D01*
X1982363Y-688380D01*
X1982664Y-688264D01*
X1982965Y-688126D01*
X1983011Y-688103D01*
X1983104Y-688033D01*
X1983242Y-687941D01*
X1983405Y-687802D01*
X1983590Y-687617D01*
X1983775Y-687408D01*
X1983937Y-687177D01*
X1984076Y-686899D01*
X1984099Y-686853D01*
X1984122Y-686760D01*
X1984168Y-686575D01*
X1984238Y-686321D01*
X1984307Y-685997D01*
X1984353Y-685603D01*
X1984376Y-685141D01*
X1984400Y-684609D01*
Y-678384D01*
X1986366D01*
Y-690000D01*
D02*
G37*
G36*
X2010640Y-678153D02*
X2010778D01*
X2010963Y-678176D01*
X2011403Y-678245D01*
X2011889Y-678361D01*
X2012398Y-678546D01*
X2012907Y-678777D01*
X2013393Y-679101D01*
X2013416D01*
X2013439Y-679148D01*
X2013578Y-679286D01*
X2013786Y-679495D01*
X2014041Y-679796D01*
X2014296Y-680166D01*
X2014550Y-680629D01*
X2014781Y-681161D01*
X2014944Y-681786D01*
X2013023Y-682086D01*
Y-682063D01*
X2013000Y-682040D01*
X2012977Y-681901D01*
X2012907Y-681693D01*
X2012792Y-681438D01*
X2012676Y-681161D01*
X2012491Y-680860D01*
X2012283Y-680582D01*
X2012051Y-680351D01*
X2012028Y-680328D01*
X2011935Y-680258D01*
X2011773Y-680166D01*
X2011588Y-680050D01*
X2011334Y-679934D01*
X2011056Y-679842D01*
X2010732Y-679772D01*
X2010385Y-679749D01*
X2010246D01*
X2010130Y-679772D01*
X2009876Y-679796D01*
X2009529Y-679888D01*
X2009159Y-680004D01*
X2008742Y-680189D01*
X2008349Y-680467D01*
X2008164Y-680629D01*
X2007979Y-680814D01*
Y-680837D01*
X2007932Y-680860D01*
X2007886Y-680929D01*
X2007840Y-681022D01*
X2007770Y-681138D01*
X2007678Y-681276D01*
X2007608Y-681438D01*
X2007516Y-681624D01*
X2007423Y-681855D01*
X2007354Y-682110D01*
X2007261Y-682387D01*
X2007192Y-682688D01*
X2007146Y-683012D01*
X2007099Y-683382D01*
X2007053Y-683775D01*
Y-684192D01*
Y-684215D01*
Y-684285D01*
Y-684423D01*
X2007076Y-684562D01*
Y-684771D01*
X2007099Y-684979D01*
X2007169Y-685488D01*
X2007261Y-686043D01*
X2007423Y-686622D01*
X2007632Y-687131D01*
X2007770Y-687385D01*
X2007932Y-687594D01*
X2007979Y-687640D01*
X2008094Y-687756D01*
X2008302Y-687917D01*
X2008557Y-688103D01*
X2008904Y-688311D01*
X2009297Y-688473D01*
X2009760Y-688588D01*
X2010015Y-688612D01*
X2010269Y-688635D01*
X2010316D01*
X2010455Y-688612D01*
X2010686Y-688588D01*
X2010940Y-688542D01*
X2011241Y-688473D01*
X2011565Y-688334D01*
X2011889Y-688172D01*
X2012190Y-687941D01*
X2012236Y-687917D01*
X2012306Y-687802D01*
X2012444Y-687640D01*
X2012606Y-687385D01*
X2012768Y-687084D01*
X2012953Y-686714D01*
X2013092Y-686251D01*
X2013185Y-685742D01*
X2015129Y-685997D01*
Y-686020D01*
X2015105Y-686089D01*
X2015082Y-686182D01*
X2015059Y-686321D01*
X2015013Y-686506D01*
X2014967Y-686691D01*
X2014805Y-687154D01*
X2014596Y-687640D01*
X2014296Y-688172D01*
X2013925Y-688681D01*
X2013717Y-688912D01*
X2013486Y-689144D01*
X2013463Y-689167D01*
X2013416Y-689190D01*
X2013347Y-689236D01*
X2013254Y-689306D01*
X2013139Y-689398D01*
X2012977Y-689491D01*
X2012792Y-689584D01*
X2012606Y-689699D01*
X2012144Y-689907D01*
X2011588Y-690069D01*
X2010987Y-690208D01*
X2010640Y-690231D01*
X2010293Y-690255D01*
X2010061D01*
X2009899Y-690231D01*
X2009691Y-690208D01*
X2009460Y-690162D01*
X2009205Y-690116D01*
X2008927Y-690069D01*
X2008302Y-689884D01*
X2008002Y-689745D01*
X2007678Y-689607D01*
X2007354Y-689421D01*
X2007053Y-689213D01*
X2006752Y-688982D01*
X2006474Y-688704D01*
X2006451Y-688681D01*
X2006405Y-688635D01*
X2006336Y-688542D01*
X2006243Y-688427D01*
X2006151Y-688264D01*
X2006012Y-688056D01*
X2005896Y-687825D01*
X2005757Y-687570D01*
X2005618Y-687270D01*
X2005503Y-686923D01*
X2005364Y-686575D01*
X2005271Y-686159D01*
X2005179Y-685742D01*
X2005109Y-685256D01*
X2005063Y-684771D01*
X2005040Y-684238D01*
Y-684215D01*
Y-684146D01*
Y-684053D01*
Y-683914D01*
X2005063Y-683752D01*
Y-683567D01*
X2005086Y-683359D01*
X2005109Y-683128D01*
X2005179Y-682618D01*
X2005294Y-682063D01*
X2005433Y-681508D01*
X2005641Y-680953D01*
Y-680929D01*
X2005665Y-680883D01*
X2005711Y-680814D01*
X2005757Y-680721D01*
X2005896Y-680467D01*
X2006104Y-680166D01*
X2006382Y-679819D01*
X2006706Y-679472D01*
X2007099Y-679125D01*
X2007539Y-678847D01*
X2007562D01*
X2007608Y-678824D01*
X2007678Y-678777D01*
X2007770Y-678731D01*
X2007886Y-678685D01*
X2008025Y-678615D01*
X2008372Y-678477D01*
X2008765Y-678361D01*
X2009251Y-678245D01*
X2009760Y-678153D01*
X2010316Y-678130D01*
X2010501D01*
X2010640Y-678153D01*
D02*
G37*
G36*
X1763888Y-680153D02*
X1764235Y-680176D01*
X1764606Y-680222D01*
X1764999Y-680315D01*
X1765415Y-680407D01*
X1765809Y-680546D01*
X1765832D01*
X1765855Y-680569D01*
X1765971Y-680615D01*
X1766156Y-680708D01*
X1766387Y-680824D01*
X1766642Y-680986D01*
X1766896Y-681171D01*
X1767128Y-681379D01*
X1767336Y-681610D01*
X1767359Y-681634D01*
X1767405Y-681726D01*
X1767498Y-681888D01*
X1767614Y-682073D01*
X1767729Y-682351D01*
X1767845Y-682652D01*
X1767938Y-682999D01*
X1768030Y-683392D01*
X1766110Y-683647D01*
Y-683600D01*
X1766086Y-683508D01*
X1766040Y-683346D01*
X1765971Y-683138D01*
X1765855Y-682929D01*
X1765716Y-682698D01*
X1765554Y-682467D01*
X1765323Y-682258D01*
X1765300Y-682235D01*
X1765207Y-682189D01*
X1765068Y-682096D01*
X1764860Y-682004D01*
X1764629Y-681911D01*
X1764328Y-681819D01*
X1763958Y-681772D01*
X1763564Y-681749D01*
X1763333D01*
X1763102Y-681772D01*
X1762801Y-681796D01*
X1762500Y-681865D01*
X1762176Y-681934D01*
X1761875Y-682050D01*
X1761621Y-682212D01*
X1761597Y-682235D01*
X1761528Y-682281D01*
X1761436Y-682374D01*
X1761343Y-682513D01*
X1761227Y-682652D01*
X1761135Y-682837D01*
X1761065Y-683045D01*
X1761042Y-683253D01*
Y-683276D01*
Y-683323D01*
X1761065Y-683392D01*
Y-683485D01*
X1761135Y-683716D01*
X1761273Y-683948D01*
X1761297Y-683971D01*
X1761320Y-683994D01*
X1761366Y-684063D01*
X1761459Y-684133D01*
X1761551Y-684202D01*
X1761690Y-684295D01*
X1761852Y-684364D01*
X1762037Y-684456D01*
X1762060D01*
X1762106Y-684480D01*
X1762199Y-684503D01*
X1762361Y-684572D01*
X1762592Y-684642D01*
X1762893Y-684711D01*
X1763078Y-684781D01*
X1763287Y-684827D01*
X1763518Y-684896D01*
X1763772Y-684966D01*
X1763796D01*
X1763865Y-684989D01*
X1763981Y-685012D01*
X1764120Y-685058D01*
X1764282Y-685104D01*
X1764490Y-685151D01*
X1764930Y-685290D01*
X1765415Y-685428D01*
X1765901Y-685590D01*
X1766341Y-685752D01*
X1766526Y-685822D01*
X1766688Y-685891D01*
X1766734Y-685914D01*
X1766827Y-685961D01*
X1766966Y-686030D01*
X1767174Y-686146D01*
X1767382Y-686285D01*
X1767590Y-686470D01*
X1767799Y-686678D01*
X1767984Y-686909D01*
X1768007Y-686933D01*
X1768053Y-687025D01*
X1768146Y-687164D01*
X1768238Y-687372D01*
X1768308Y-687627D01*
X1768400Y-687904D01*
X1768447Y-688228D01*
X1768470Y-688598D01*
Y-688645D01*
Y-688761D01*
X1768447Y-688946D01*
X1768400Y-689200D01*
X1768331Y-689478D01*
X1768215Y-689779D01*
X1768076Y-690126D01*
X1767891Y-690450D01*
X1767868Y-690496D01*
X1767776Y-690589D01*
X1767660Y-690751D01*
X1767475Y-690936D01*
X1767220Y-691144D01*
X1766943Y-691375D01*
X1766619Y-691583D01*
X1766225Y-691792D01*
X1766202D01*
X1766179Y-691815D01*
X1766040Y-691861D01*
X1765809Y-691931D01*
X1765508Y-692023D01*
X1765138Y-692116D01*
X1764721Y-692185D01*
X1764282Y-692231D01*
X1763772Y-692254D01*
X1763564D01*
X1763402Y-692231D01*
X1763217D01*
X1762986Y-692208D01*
X1762754Y-692185D01*
X1762500Y-692139D01*
X1761944Y-692023D01*
X1761366Y-691861D01*
X1760811Y-691630D01*
X1760556Y-691491D01*
X1760325Y-691329D01*
X1760302Y-691306D01*
X1760278Y-691283D01*
X1760140Y-691144D01*
X1759931Y-690936D01*
X1759700Y-690612D01*
X1759445Y-690218D01*
X1759191Y-689755D01*
X1758983Y-689177D01*
X1758821Y-688529D01*
X1760764Y-688228D01*
Y-688251D01*
Y-688275D01*
X1760811Y-688413D01*
X1760857Y-688645D01*
X1760950Y-688899D01*
X1761065Y-689177D01*
X1761204Y-689478D01*
X1761412Y-689779D01*
X1761667Y-690033D01*
X1761713Y-690056D01*
X1761806Y-690126D01*
X1761991Y-690218D01*
X1762222Y-690334D01*
X1762523Y-690450D01*
X1762870Y-690542D01*
X1763287Y-690612D01*
X1763772Y-690635D01*
X1764004D01*
X1764235Y-690612D01*
X1764536Y-690565D01*
X1764860Y-690496D01*
X1765207Y-690403D01*
X1765508Y-690288D01*
X1765786Y-690103D01*
X1765809Y-690079D01*
X1765901Y-690010D01*
X1765994Y-689894D01*
X1766133Y-689732D01*
X1766248Y-689547D01*
X1766364Y-689316D01*
X1766434Y-689084D01*
X1766457Y-688807D01*
Y-688784D01*
Y-688691D01*
X1766434Y-688575D01*
X1766387Y-688413D01*
X1766318Y-688251D01*
X1766202Y-688089D01*
X1766063Y-687904D01*
X1765855Y-687766D01*
X1765832Y-687742D01*
X1765762Y-687719D01*
X1765647Y-687650D01*
X1765462Y-687580D01*
X1765184Y-687488D01*
X1765022Y-687418D01*
X1764837Y-687372D01*
X1764629Y-687303D01*
X1764397Y-687233D01*
X1764143Y-687164D01*
X1763842Y-687094D01*
X1763819D01*
X1763749Y-687071D01*
X1763634Y-687048D01*
X1763495Y-687002D01*
X1763310Y-686956D01*
X1763102Y-686886D01*
X1762662Y-686770D01*
X1762153Y-686609D01*
X1761667Y-686470D01*
X1761204Y-686308D01*
X1760996Y-686215D01*
X1760834Y-686146D01*
X1760788Y-686123D01*
X1760695Y-686076D01*
X1760556Y-685984D01*
X1760371Y-685868D01*
X1760163Y-685706D01*
X1759955Y-685521D01*
X1759746Y-685313D01*
X1759561Y-685058D01*
X1759538Y-685035D01*
X1759492Y-684942D01*
X1759422Y-684781D01*
X1759353Y-684595D01*
X1759283Y-684364D01*
X1759214Y-684086D01*
X1759168Y-683809D01*
X1759145Y-683485D01*
Y-683438D01*
Y-683346D01*
X1759168Y-683207D01*
X1759191Y-682999D01*
X1759237Y-682791D01*
X1759283Y-682536D01*
X1759376Y-682305D01*
X1759492Y-682050D01*
X1759515Y-682027D01*
X1759561Y-681934D01*
X1759631Y-681819D01*
X1759746Y-681657D01*
X1759885Y-681495D01*
X1760047Y-681286D01*
X1760232Y-681101D01*
X1760464Y-680939D01*
X1760487Y-680916D01*
X1760556Y-680893D01*
X1760649Y-680824D01*
X1760788Y-680754D01*
X1760973Y-680662D01*
X1761181Y-680569D01*
X1761436Y-680477D01*
X1761713Y-680384D01*
X1761759Y-680361D01*
X1761852Y-680338D01*
X1762014Y-680292D01*
X1762222Y-680245D01*
X1762477Y-680199D01*
X1762754Y-680176D01*
X1763078Y-680129D01*
X1763634D01*
X1763888Y-680153D01*
D02*
G37*
G36*
X1775088D02*
X1775435Y-680176D01*
X1775805Y-680222D01*
X1776198Y-680315D01*
X1776615Y-680407D01*
X1777008Y-680546D01*
X1777031D01*
X1777055Y-680569D01*
X1777170Y-680615D01*
X1777355Y-680708D01*
X1777587Y-680824D01*
X1777841Y-680986D01*
X1778096Y-681171D01*
X1778327Y-681379D01*
X1778535Y-681610D01*
X1778559Y-681634D01*
X1778605Y-681726D01*
X1778698Y-681888D01*
X1778813Y-682073D01*
X1778929Y-682351D01*
X1779044Y-682652D01*
X1779137Y-682999D01*
X1779230Y-683392D01*
X1777309Y-683647D01*
Y-683600D01*
X1777286Y-683508D01*
X1777240Y-683346D01*
X1777170Y-683138D01*
X1777055Y-682929D01*
X1776916Y-682698D01*
X1776754Y-682467D01*
X1776522Y-682258D01*
X1776499Y-682235D01*
X1776407Y-682189D01*
X1776268Y-682096D01*
X1776060Y-682004D01*
X1775828Y-681911D01*
X1775527Y-681819D01*
X1775157Y-681772D01*
X1774764Y-681749D01*
X1774532D01*
X1774301Y-681772D01*
X1774000Y-681796D01*
X1773699Y-681865D01*
X1773375Y-681934D01*
X1773075Y-682050D01*
X1772820Y-682212D01*
X1772797Y-682235D01*
X1772728Y-682281D01*
X1772635Y-682374D01*
X1772542Y-682513D01*
X1772427Y-682652D01*
X1772334Y-682837D01*
X1772265Y-683045D01*
X1772242Y-683253D01*
Y-683276D01*
Y-683323D01*
X1772265Y-683392D01*
Y-683485D01*
X1772334Y-683716D01*
X1772473Y-683948D01*
X1772496Y-683971D01*
X1772519Y-683994D01*
X1772565Y-684063D01*
X1772658Y-684133D01*
X1772751Y-684202D01*
X1772890Y-684295D01*
X1773051Y-684364D01*
X1773237Y-684456D01*
X1773260D01*
X1773306Y-684480D01*
X1773398Y-684503D01*
X1773560Y-684572D01*
X1773792Y-684642D01*
X1774093Y-684711D01*
X1774278Y-684781D01*
X1774486Y-684827D01*
X1774718Y-684896D01*
X1774972Y-684966D01*
X1774995D01*
X1775065Y-684989D01*
X1775180Y-685012D01*
X1775319Y-685058D01*
X1775481Y-685104D01*
X1775689Y-685151D01*
X1776129Y-685290D01*
X1776615Y-685428D01*
X1777101Y-685590D01*
X1777540Y-685752D01*
X1777726Y-685822D01*
X1777888Y-685891D01*
X1777934Y-685914D01*
X1778026Y-685961D01*
X1778165Y-686030D01*
X1778374Y-686146D01*
X1778582Y-686285D01*
X1778790Y-686470D01*
X1778998Y-686678D01*
X1779183Y-686909D01*
X1779207Y-686933D01*
X1779253Y-687025D01*
X1779345Y-687164D01*
X1779438Y-687372D01*
X1779507Y-687627D01*
X1779600Y-687904D01*
X1779646Y-688228D01*
X1779669Y-688598D01*
Y-688645D01*
Y-688761D01*
X1779646Y-688946D01*
X1779600Y-689200D01*
X1779530Y-689478D01*
X1779415Y-689779D01*
X1779276Y-690126D01*
X1779091Y-690450D01*
X1779068Y-690496D01*
X1778975Y-690589D01*
X1778859Y-690751D01*
X1778674Y-690936D01*
X1778420Y-691144D01*
X1778142Y-691375D01*
X1777818Y-691583D01*
X1777425Y-691792D01*
X1777402D01*
X1777379Y-691815D01*
X1777240Y-691861D01*
X1777008Y-691931D01*
X1776707Y-692023D01*
X1776337Y-692116D01*
X1775921Y-692185D01*
X1775481Y-692231D01*
X1774972Y-692254D01*
X1774764D01*
X1774602Y-692231D01*
X1774417D01*
X1774185Y-692208D01*
X1773954Y-692185D01*
X1773699Y-692139D01*
X1773144Y-692023D01*
X1772565Y-691861D01*
X1772010Y-691630D01*
X1771756Y-691491D01*
X1771524Y-691329D01*
X1771501Y-691306D01*
X1771478Y-691283D01*
X1771339Y-691144D01*
X1771131Y-690936D01*
X1770900Y-690612D01*
X1770645Y-690218D01*
X1770390Y-689755D01*
X1770182Y-689177D01*
X1770020Y-688529D01*
X1771964Y-688228D01*
Y-688251D01*
Y-688275D01*
X1772010Y-688413D01*
X1772056Y-688645D01*
X1772149Y-688899D01*
X1772265Y-689177D01*
X1772404Y-689478D01*
X1772612Y-689779D01*
X1772866Y-690033D01*
X1772913Y-690056D01*
X1773005Y-690126D01*
X1773190Y-690218D01*
X1773422Y-690334D01*
X1773723Y-690450D01*
X1774070Y-690542D01*
X1774486Y-690612D01*
X1774972Y-690635D01*
X1775203D01*
X1775435Y-690612D01*
X1775736Y-690565D01*
X1776060Y-690496D01*
X1776407Y-690403D01*
X1776707Y-690288D01*
X1776985Y-690103D01*
X1777008Y-690079D01*
X1777101Y-690010D01*
X1777193Y-689894D01*
X1777332Y-689732D01*
X1777448Y-689547D01*
X1777564Y-689316D01*
X1777633Y-689084D01*
X1777656Y-688807D01*
Y-688784D01*
Y-688691D01*
X1777633Y-688575D01*
X1777587Y-688413D01*
X1777517Y-688251D01*
X1777402Y-688089D01*
X1777263Y-687904D01*
X1777055Y-687766D01*
X1777031Y-687742D01*
X1776962Y-687719D01*
X1776846Y-687650D01*
X1776661Y-687580D01*
X1776384Y-687488D01*
X1776221Y-687418D01*
X1776036Y-687372D01*
X1775828Y-687303D01*
X1775597Y-687233D01*
X1775342Y-687164D01*
X1775041Y-687094D01*
X1775018D01*
X1774949Y-687071D01*
X1774833Y-687048D01*
X1774694Y-687002D01*
X1774509Y-686956D01*
X1774301Y-686886D01*
X1773861Y-686770D01*
X1773352Y-686609D01*
X1772866Y-686470D01*
X1772404Y-686308D01*
X1772195Y-686215D01*
X1772033Y-686146D01*
X1771987Y-686123D01*
X1771895Y-686076D01*
X1771756Y-685984D01*
X1771570Y-685868D01*
X1771362Y-685706D01*
X1771154Y-685521D01*
X1770946Y-685313D01*
X1770761Y-685058D01*
X1770737Y-685035D01*
X1770691Y-684942D01*
X1770622Y-684781D01*
X1770552Y-684595D01*
X1770483Y-684364D01*
X1770414Y-684086D01*
X1770367Y-683809D01*
X1770344Y-683485D01*
Y-683438D01*
Y-683346D01*
X1770367Y-683207D01*
X1770390Y-682999D01*
X1770437Y-682791D01*
X1770483Y-682536D01*
X1770576Y-682305D01*
X1770691Y-682050D01*
X1770714Y-682027D01*
X1770761Y-681934D01*
X1770830Y-681819D01*
X1770946Y-681657D01*
X1771085Y-681495D01*
X1771247Y-681286D01*
X1771432Y-681101D01*
X1771663Y-680939D01*
X1771686Y-680916D01*
X1771756Y-680893D01*
X1771848Y-680824D01*
X1771987Y-680754D01*
X1772172Y-680662D01*
X1772380Y-680569D01*
X1772635Y-680477D01*
X1772913Y-680384D01*
X1772959Y-680361D01*
X1773051Y-680338D01*
X1773213Y-680292D01*
X1773422Y-680245D01*
X1773676Y-680199D01*
X1773954Y-680176D01*
X1774278Y-680129D01*
X1774833D01*
X1775088Y-680153D01*
D02*
G37*
G36*
X1609225Y-682490D02*
X1616236Y-692000D01*
X1613436D01*
X1607744Y-683924D01*
X1605129Y-686447D01*
Y-692000D01*
X1603000D01*
Y-675987D01*
X1605129D01*
Y-683948D01*
X1613042Y-675987D01*
X1615935D01*
X1609225Y-682490D01*
D02*
G37*
G36*
X1634493Y-680153D02*
X1634840Y-680176D01*
X1635210Y-680222D01*
X1635603Y-680315D01*
X1636020Y-680407D01*
X1636413Y-680546D01*
X1636436D01*
X1636460Y-680569D01*
X1636575Y-680615D01*
X1636760Y-680708D01*
X1636992Y-680824D01*
X1637246Y-680986D01*
X1637501Y-681171D01*
X1637732Y-681379D01*
X1637941Y-681610D01*
X1637964Y-681634D01*
X1638010Y-681726D01*
X1638103Y-681888D01*
X1638218Y-682073D01*
X1638334Y-682351D01*
X1638450Y-682652D01*
X1638542Y-682999D01*
X1638635Y-683392D01*
X1636714Y-683647D01*
Y-683600D01*
X1636691Y-683508D01*
X1636645Y-683346D01*
X1636575Y-683138D01*
X1636460Y-682929D01*
X1636321Y-682698D01*
X1636159Y-682467D01*
X1635927Y-682258D01*
X1635904Y-682235D01*
X1635812Y-682189D01*
X1635673Y-682096D01*
X1635465Y-682004D01*
X1635233Y-681911D01*
X1634932Y-681819D01*
X1634562Y-681772D01*
X1634169Y-681749D01*
X1633937D01*
X1633706Y-681772D01*
X1633405Y-681796D01*
X1633104Y-681865D01*
X1632780Y-681934D01*
X1632480Y-682050D01*
X1632225Y-682212D01*
X1632202Y-682235D01*
X1632133Y-682281D01*
X1632040Y-682374D01*
X1631947Y-682513D01*
X1631832Y-682652D01*
X1631739Y-682837D01*
X1631670Y-683045D01*
X1631647Y-683253D01*
Y-683276D01*
Y-683323D01*
X1631670Y-683392D01*
Y-683485D01*
X1631739Y-683716D01*
X1631878Y-683948D01*
X1631901Y-683971D01*
X1631924Y-683994D01*
X1631971Y-684063D01*
X1632063Y-684133D01*
X1632156Y-684202D01*
X1632294Y-684295D01*
X1632457Y-684364D01*
X1632642Y-684456D01*
X1632665D01*
X1632711Y-684480D01*
X1632803Y-684503D01*
X1632966Y-684572D01*
X1633197Y-684642D01*
X1633498Y-684711D01*
X1633683Y-684781D01*
X1633891Y-684827D01*
X1634122Y-684896D01*
X1634377Y-684966D01*
X1634400D01*
X1634470Y-684989D01*
X1634585Y-685012D01*
X1634724Y-685058D01*
X1634886Y-685104D01*
X1635094Y-685151D01*
X1635534Y-685290D01*
X1636020Y-685428D01*
X1636506Y-685590D01*
X1636945Y-685752D01*
X1637131Y-685822D01*
X1637293Y-685891D01*
X1637339Y-685914D01*
X1637431Y-685961D01*
X1637570Y-686030D01*
X1637778Y-686146D01*
X1637987Y-686285D01*
X1638195Y-686470D01*
X1638403Y-686678D01*
X1638588Y-686909D01*
X1638611Y-686933D01*
X1638658Y-687025D01*
X1638750Y-687164D01*
X1638843Y-687372D01*
X1638912Y-687627D01*
X1639005Y-687904D01*
X1639051Y-688228D01*
X1639074Y-688598D01*
Y-688645D01*
Y-688761D01*
X1639051Y-688946D01*
X1639005Y-689200D01*
X1638936Y-689478D01*
X1638820Y-689779D01*
X1638681Y-690126D01*
X1638496Y-690450D01*
X1638473Y-690496D01*
X1638380Y-690589D01*
X1638264Y-690751D01*
X1638079Y-690936D01*
X1637825Y-691144D01*
X1637547Y-691375D01*
X1637223Y-691583D01*
X1636830Y-691792D01*
X1636807D01*
X1636783Y-691815D01*
X1636645Y-691861D01*
X1636413Y-691931D01*
X1636113Y-692023D01*
X1635742Y-692116D01*
X1635326Y-692185D01*
X1634886Y-692231D01*
X1634377Y-692254D01*
X1634169D01*
X1634007Y-692231D01*
X1633822D01*
X1633590Y-692208D01*
X1633359Y-692185D01*
X1633104Y-692139D01*
X1632549Y-692023D01*
X1631971Y-691861D01*
X1631415Y-691630D01*
X1631161Y-691491D01*
X1630929Y-691329D01*
X1630906Y-691306D01*
X1630883Y-691283D01*
X1630744Y-691144D01*
X1630536Y-690936D01*
X1630305Y-690612D01*
X1630050Y-690218D01*
X1629795Y-689755D01*
X1629587Y-689177D01*
X1629425Y-688529D01*
X1631369Y-688228D01*
Y-688251D01*
Y-688275D01*
X1631415Y-688413D01*
X1631461Y-688645D01*
X1631554Y-688899D01*
X1631670Y-689177D01*
X1631808Y-689478D01*
X1632017Y-689779D01*
X1632271Y-690033D01*
X1632318Y-690056D01*
X1632410Y-690126D01*
X1632595Y-690218D01*
X1632827Y-690334D01*
X1633127Y-690450D01*
X1633475Y-690542D01*
X1633891Y-690612D01*
X1634377Y-690635D01*
X1634608D01*
X1634840Y-690612D01*
X1635141Y-690565D01*
X1635465Y-690496D01*
X1635812Y-690403D01*
X1636113Y-690288D01*
X1636390Y-690103D01*
X1636413Y-690079D01*
X1636506Y-690010D01*
X1636598Y-689894D01*
X1636737Y-689732D01*
X1636853Y-689547D01*
X1636969Y-689316D01*
X1637038Y-689084D01*
X1637061Y-688807D01*
Y-688784D01*
Y-688691D01*
X1637038Y-688575D01*
X1636992Y-688413D01*
X1636922Y-688251D01*
X1636807Y-688089D01*
X1636668Y-687904D01*
X1636460Y-687766D01*
X1636436Y-687742D01*
X1636367Y-687719D01*
X1636251Y-687650D01*
X1636066Y-687580D01*
X1635789Y-687488D01*
X1635627Y-687418D01*
X1635441Y-687372D01*
X1635233Y-687303D01*
X1635002Y-687233D01*
X1634747Y-687164D01*
X1634446Y-687094D01*
X1634423D01*
X1634354Y-687071D01*
X1634238Y-687048D01*
X1634099Y-687002D01*
X1633914Y-686956D01*
X1633706Y-686886D01*
X1633266Y-686770D01*
X1632757Y-686609D01*
X1632271Y-686470D01*
X1631808Y-686308D01*
X1631600Y-686215D01*
X1631438Y-686146D01*
X1631392Y-686123D01*
X1631299Y-686076D01*
X1631161Y-685984D01*
X1630975Y-685868D01*
X1630767Y-685706D01*
X1630559Y-685521D01*
X1630351Y-685313D01*
X1630166Y-685058D01*
X1630143Y-685035D01*
X1630096Y-684942D01*
X1630027Y-684781D01*
X1629957Y-684595D01*
X1629888Y-684364D01*
X1629819Y-684086D01*
X1629772Y-683809D01*
X1629749Y-683485D01*
Y-683438D01*
Y-683346D01*
X1629772Y-683207D01*
X1629795Y-682999D01*
X1629842Y-682791D01*
X1629888Y-682536D01*
X1629980Y-682305D01*
X1630096Y-682050D01*
X1630119Y-682027D01*
X1630166Y-681934D01*
X1630235Y-681819D01*
X1630351Y-681657D01*
X1630490Y-681495D01*
X1630652Y-681286D01*
X1630837Y-681101D01*
X1631068Y-680939D01*
X1631091Y-680916D01*
X1631161Y-680893D01*
X1631253Y-680824D01*
X1631392Y-680754D01*
X1631577Y-680662D01*
X1631785Y-680569D01*
X1632040Y-680477D01*
X1632318Y-680384D01*
X1632364Y-680361D01*
X1632457Y-680338D01*
X1632618Y-680292D01*
X1632827Y-680245D01*
X1633081Y-680199D01*
X1633359Y-680176D01*
X1633683Y-680129D01*
X1634238D01*
X1634493Y-680153D01*
D02*
G37*
G36*
X1751810D02*
X1752064Y-680199D01*
X1752365Y-680292D01*
X1752689Y-680407D01*
X1753059Y-680569D01*
X1753452Y-680777D01*
X1752735Y-682582D01*
X1752712Y-682559D01*
X1752619Y-682513D01*
X1752480Y-682443D01*
X1752295Y-682374D01*
X1752087Y-682305D01*
X1751833Y-682235D01*
X1751578Y-682189D01*
X1751324Y-682166D01*
X1751208D01*
X1751092Y-682189D01*
X1750930Y-682212D01*
X1750768Y-682258D01*
X1750560Y-682328D01*
X1750352Y-682420D01*
X1750167Y-682559D01*
X1750143Y-682582D01*
X1750074Y-682628D01*
X1750005Y-682721D01*
X1749889Y-682837D01*
X1749773Y-682999D01*
X1749657Y-683184D01*
X1749542Y-683392D01*
X1749449Y-683647D01*
X1749426Y-683693D01*
X1749403Y-683832D01*
X1749357Y-684040D01*
X1749287Y-684318D01*
X1749218Y-684665D01*
X1749172Y-685058D01*
X1749148Y-685475D01*
X1749125Y-685938D01*
Y-692000D01*
X1747159D01*
Y-680384D01*
X1748940D01*
Y-682143D01*
X1748963Y-682120D01*
X1749056Y-681957D01*
X1749172Y-681749D01*
X1749357Y-681495D01*
X1749542Y-681240D01*
X1749750Y-680963D01*
X1749958Y-680731D01*
X1750167Y-680546D01*
X1750190Y-680523D01*
X1750259Y-680477D01*
X1750398Y-680407D01*
X1750537Y-680338D01*
X1750722Y-680268D01*
X1750953Y-680199D01*
X1751185Y-680153D01*
X1751439Y-680129D01*
X1751601D01*
X1751810Y-680153D01*
D02*
G37*
G36*
X1756599Y-678232D02*
X1754633D01*
Y-675987D01*
X1756599D01*
Y-678232D01*
D02*
G37*
G36*
X1783973D02*
X1782006D01*
Y-675987D01*
X1783973D01*
Y-678232D01*
D02*
G37*
G36*
X1726148Y-675733D02*
X1726356Y-675756D01*
X1726611Y-675779D01*
X1726865Y-675802D01*
X1727166Y-675872D01*
X1727791Y-676011D01*
X1728485Y-676219D01*
X1728832Y-676358D01*
X1729156Y-676520D01*
X1729480Y-676728D01*
X1729804Y-676936D01*
X1729827Y-676959D01*
X1729873Y-676982D01*
X1729966Y-677052D01*
X1730082Y-677168D01*
X1730197Y-677283D01*
X1730359Y-677445D01*
X1730521Y-677630D01*
X1730706Y-677815D01*
X1730892Y-678047D01*
X1731077Y-678325D01*
X1731285Y-678602D01*
X1731470Y-678903D01*
X1731632Y-679250D01*
X1731817Y-679597D01*
X1731956Y-679967D01*
X1732095Y-680384D01*
X1730012Y-680870D01*
Y-680847D01*
X1729989Y-680800D01*
X1729943Y-680708D01*
X1729897Y-680592D01*
X1729850Y-680453D01*
X1729781Y-680268D01*
X1729596Y-679898D01*
X1729364Y-679482D01*
X1729087Y-679065D01*
X1728739Y-678672D01*
X1728369Y-678325D01*
X1728323Y-678278D01*
X1728184Y-678186D01*
X1727953Y-678070D01*
X1727652Y-677908D01*
X1727259Y-677769D01*
X1726819Y-677630D01*
X1726287Y-677538D01*
X1725708Y-677515D01*
X1725523D01*
X1725407Y-677538D01*
X1725245D01*
X1725060Y-677561D01*
X1724621Y-677630D01*
X1724135Y-677723D01*
X1723626Y-677885D01*
X1723094Y-678116D01*
X1722608Y-678417D01*
X1722584D01*
X1722561Y-678463D01*
X1722399Y-678579D01*
X1722191Y-678764D01*
X1721936Y-679042D01*
X1721636Y-679389D01*
X1721358Y-679782D01*
X1721104Y-680268D01*
X1720872Y-680800D01*
Y-680824D01*
X1720849Y-680870D01*
X1720826Y-680939D01*
X1720803Y-681055D01*
X1720756Y-681194D01*
X1720710Y-681356D01*
X1720641Y-681749D01*
X1720548Y-682212D01*
X1720456Y-682721D01*
X1720409Y-683276D01*
X1720386Y-683878D01*
Y-683901D01*
Y-683971D01*
Y-684086D01*
Y-684225D01*
X1720409Y-684387D01*
Y-684595D01*
X1720432Y-684827D01*
X1720456Y-685081D01*
X1720525Y-685637D01*
X1720641Y-686238D01*
X1720780Y-686840D01*
X1720965Y-687441D01*
Y-687465D01*
X1720988Y-687511D01*
X1721034Y-687580D01*
X1721080Y-687696D01*
X1721219Y-687974D01*
X1721427Y-688298D01*
X1721682Y-688668D01*
X1722006Y-689061D01*
X1722376Y-689408D01*
X1722816Y-689732D01*
X1722839D01*
X1722885Y-689755D01*
X1722955Y-689802D01*
X1723047Y-689848D01*
X1723163Y-689894D01*
X1723302Y-689964D01*
X1723626Y-690103D01*
X1724042Y-690241D01*
X1724505Y-690357D01*
X1725014Y-690450D01*
X1725546Y-690473D01*
X1725708D01*
X1725847Y-690450D01*
X1726009D01*
X1726171Y-690426D01*
X1726588Y-690334D01*
X1727074Y-690218D01*
X1727559Y-690033D01*
X1728069Y-689779D01*
X1728323Y-689640D01*
X1728554Y-689455D01*
X1728578Y-689432D01*
X1728601Y-689408D01*
X1728670Y-689339D01*
X1728763Y-689269D01*
X1728855Y-689154D01*
X1728971Y-689015D01*
X1729110Y-688876D01*
X1729225Y-688691D01*
X1729364Y-688483D01*
X1729526Y-688251D01*
X1729665Y-688020D01*
X1729804Y-687742D01*
X1729920Y-687441D01*
X1730035Y-687118D01*
X1730151Y-686770D01*
X1730244Y-686400D01*
X1732372Y-686933D01*
Y-686956D01*
X1732349Y-687048D01*
X1732303Y-687187D01*
X1732233Y-687372D01*
X1732164Y-687580D01*
X1732072Y-687835D01*
X1731956Y-688113D01*
X1731817Y-688413D01*
X1731493Y-689061D01*
X1731077Y-689709D01*
X1730822Y-690033D01*
X1730567Y-690357D01*
X1730290Y-690635D01*
X1729966Y-690912D01*
X1729943Y-690936D01*
X1729897Y-690982D01*
X1729781Y-691028D01*
X1729665Y-691121D01*
X1729480Y-691236D01*
X1729295Y-691352D01*
X1729040Y-691468D01*
X1728786Y-691583D01*
X1728485Y-691722D01*
X1728161Y-691838D01*
X1727814Y-691954D01*
X1727444Y-692069D01*
X1727050Y-692162D01*
X1726634Y-692208D01*
X1726194Y-692254D01*
X1725731Y-692278D01*
X1725477D01*
X1725292Y-692254D01*
X1725083D01*
X1724829Y-692231D01*
X1724551Y-692185D01*
X1724227Y-692139D01*
X1723556Y-692023D01*
X1722862Y-691838D01*
X1722168Y-691583D01*
X1721844Y-691422D01*
X1721520Y-691236D01*
X1721497Y-691213D01*
X1721451Y-691190D01*
X1721358Y-691121D01*
X1721266Y-691028D01*
X1721127Y-690936D01*
X1720965Y-690797D01*
X1720780Y-690635D01*
X1720594Y-690450D01*
X1720409Y-690241D01*
X1720201Y-690033D01*
X1719785Y-689501D01*
X1719391Y-688876D01*
X1719044Y-688182D01*
Y-688159D01*
X1718998Y-688089D01*
X1718975Y-687974D01*
X1718905Y-687835D01*
X1718859Y-687650D01*
X1718790Y-687418D01*
X1718697Y-687164D01*
X1718628Y-686886D01*
X1718558Y-686585D01*
X1718466Y-686238D01*
X1718350Y-685521D01*
X1718257Y-684711D01*
X1718211Y-683878D01*
Y-683855D01*
Y-683762D01*
Y-683624D01*
X1718234Y-683462D01*
Y-683230D01*
X1718257Y-682999D01*
X1718280Y-682698D01*
X1718327Y-682397D01*
X1718443Y-681726D01*
X1718604Y-680986D01*
X1718836Y-680245D01*
X1719160Y-679528D01*
X1719183Y-679505D01*
X1719206Y-679435D01*
X1719252Y-679343D01*
X1719345Y-679227D01*
X1719438Y-679065D01*
X1719553Y-678880D01*
X1719854Y-678463D01*
X1720247Y-678001D01*
X1720710Y-677538D01*
X1721242Y-677075D01*
X1721867Y-676682D01*
X1721890Y-676659D01*
X1721960Y-676635D01*
X1722052Y-676589D01*
X1722168Y-676520D01*
X1722353Y-676450D01*
X1722538Y-676381D01*
X1722769Y-676288D01*
X1723024Y-676196D01*
X1723302Y-676103D01*
X1723602Y-676011D01*
X1724250Y-675872D01*
X1724991Y-675756D01*
X1725755Y-675710D01*
X1725986D01*
X1726148Y-675733D01*
D02*
G37*
G36*
X1690675Y-678232D02*
X1688708D01*
Y-675987D01*
X1690675D01*
Y-678232D01*
D02*
G37*
G36*
X1756599Y-692000D02*
X1754633D01*
Y-680384D01*
X1756599D01*
Y-692000D01*
D02*
G37*
G36*
X1783973D02*
X1782006D01*
Y-680384D01*
X1783973D01*
Y-692000D01*
D02*
G37*
G36*
X1736699Y-681726D02*
X1736723Y-681703D01*
X1736769Y-681657D01*
X1736838Y-681587D01*
X1736954Y-681472D01*
X1737070Y-681356D01*
X1737232Y-681217D01*
X1737440Y-681078D01*
X1737648Y-680916D01*
X1737880Y-680777D01*
X1738134Y-680639D01*
X1738736Y-680384D01*
X1739060Y-680268D01*
X1739407Y-680199D01*
X1739777Y-680153D01*
X1740147Y-680129D01*
X1740356D01*
X1740610Y-680153D01*
X1740911Y-680199D01*
X1741258Y-680245D01*
X1741628Y-680338D01*
X1741998Y-680477D01*
X1742369Y-680639D01*
X1742415Y-680662D01*
X1742531Y-680731D01*
X1742693Y-680847D01*
X1742901Y-681009D01*
X1743109Y-681217D01*
X1743340Y-681448D01*
X1743549Y-681726D01*
X1743734Y-682050D01*
X1743757Y-682096D01*
X1743803Y-682212D01*
X1743873Y-682420D01*
X1743942Y-682721D01*
X1744012Y-683091D01*
X1744081Y-683531D01*
X1744127Y-684063D01*
X1744150Y-684665D01*
Y-692000D01*
X1742184D01*
Y-684642D01*
Y-684619D01*
Y-684572D01*
Y-684503D01*
Y-684410D01*
X1742160Y-684156D01*
X1742114Y-683832D01*
X1742021Y-683485D01*
X1741906Y-683138D01*
X1741744Y-682791D01*
X1741536Y-682513D01*
X1741512Y-682490D01*
X1741420Y-682397D01*
X1741281Y-682281D01*
X1741073Y-682166D01*
X1740818Y-682027D01*
X1740517Y-681934D01*
X1740147Y-681842D01*
X1739731Y-681819D01*
X1739592D01*
X1739430Y-681842D01*
X1739198Y-681865D01*
X1738967Y-681934D01*
X1738689Y-682004D01*
X1738412Y-682120D01*
X1738111Y-682281D01*
X1738088Y-682305D01*
X1737995Y-682374D01*
X1737856Y-682467D01*
X1737694Y-682605D01*
X1737509Y-682791D01*
X1737324Y-682999D01*
X1737162Y-683253D01*
X1737023Y-683531D01*
X1737000Y-683577D01*
X1736977Y-683670D01*
X1736931Y-683855D01*
X1736861Y-684086D01*
X1736792Y-684387D01*
X1736746Y-684757D01*
X1736723Y-685174D01*
X1736699Y-685660D01*
Y-692000D01*
X1734733D01*
Y-675987D01*
X1736699D01*
Y-681726D01*
D02*
G37*
G36*
X1795404Y-684456D02*
X1793437D01*
X1790730Y-677954D01*
X1788092Y-684456D01*
X1786079D01*
X1789943Y-675710D01*
X1791517D01*
X1795404Y-684456D01*
D02*
G37*
G36*
X1699098Y-680153D02*
X1699445Y-680176D01*
X1699838Y-680222D01*
X1700232Y-680292D01*
X1700625Y-680384D01*
X1700995Y-680500D01*
X1701042Y-680523D01*
X1701157Y-680569D01*
X1701319Y-680639D01*
X1701528Y-680731D01*
X1701759Y-680870D01*
X1701990Y-681009D01*
X1702199Y-681194D01*
X1702384Y-681379D01*
X1702407Y-681402D01*
X1702453Y-681472D01*
X1702523Y-681587D01*
X1702615Y-681726D01*
X1702731Y-681934D01*
X1702823Y-682143D01*
X1702916Y-682397D01*
X1702985Y-682698D01*
Y-682721D01*
X1703009Y-682791D01*
X1703032Y-682929D01*
X1703055Y-683114D01*
Y-683369D01*
X1703078Y-683670D01*
X1703101Y-684063D01*
Y-684503D01*
Y-687141D01*
Y-687164D01*
Y-687256D01*
Y-687395D01*
Y-687580D01*
Y-687789D01*
Y-688043D01*
X1703124Y-688598D01*
Y-689177D01*
X1703147Y-689755D01*
X1703170Y-690010D01*
Y-690241D01*
X1703194Y-690450D01*
X1703217Y-690612D01*
Y-690635D01*
X1703240Y-690727D01*
X1703263Y-690866D01*
X1703332Y-691051D01*
X1703379Y-691260D01*
X1703471Y-691491D01*
X1703587Y-691746D01*
X1703703Y-692000D01*
X1701643D01*
X1701620Y-691977D01*
X1701597Y-691884D01*
X1701551Y-691769D01*
X1701481Y-691583D01*
X1701412Y-691375D01*
X1701366Y-691121D01*
X1701319Y-690843D01*
X1701273Y-690542D01*
X1701250D01*
X1701227Y-690589D01*
X1701088Y-690704D01*
X1700880Y-690866D01*
X1700602Y-691074D01*
X1700255Y-691283D01*
X1699908Y-691514D01*
X1699538Y-691722D01*
X1699144Y-691884D01*
X1699098Y-691907D01*
X1698959Y-691931D01*
X1698751Y-692000D01*
X1698496Y-692069D01*
X1698172Y-692139D01*
X1697802Y-692185D01*
X1697386Y-692231D01*
X1696969Y-692254D01*
X1696784D01*
X1696645Y-692231D01*
X1696483D01*
X1696298Y-692208D01*
X1695882Y-692139D01*
X1695419Y-692023D01*
X1694910Y-691861D01*
X1694447Y-691630D01*
X1694030Y-691329D01*
X1693984Y-691283D01*
X1693868Y-691167D01*
X1693706Y-690959D01*
X1693521Y-690681D01*
X1693336Y-690334D01*
X1693174Y-689941D01*
X1693058Y-689455D01*
X1693035Y-689223D01*
X1693012Y-688946D01*
Y-688899D01*
Y-688807D01*
X1693035Y-688645D01*
X1693058Y-688437D01*
X1693105Y-688182D01*
X1693174Y-687927D01*
X1693267Y-687650D01*
X1693383Y-687395D01*
X1693406Y-687372D01*
X1693452Y-687280D01*
X1693544Y-687141D01*
X1693660Y-686979D01*
X1693799Y-686794D01*
X1693984Y-686609D01*
X1694169Y-686423D01*
X1694401Y-686261D01*
X1694424Y-686238D01*
X1694516Y-686192D01*
X1694632Y-686099D01*
X1694817Y-686007D01*
X1695025Y-685914D01*
X1695280Y-685799D01*
X1695535Y-685706D01*
X1695835Y-685613D01*
X1695858D01*
X1695951Y-685590D01*
X1696090Y-685544D01*
X1696275Y-685521D01*
X1696506Y-685475D01*
X1696807Y-685428D01*
X1697154Y-685359D01*
X1697571Y-685313D01*
X1697594D01*
X1697686Y-685290D01*
X1697802D01*
X1697964Y-685266D01*
X1698149Y-685243D01*
X1698381Y-685197D01*
X1698635Y-685174D01*
X1698913Y-685128D01*
X1699468Y-685012D01*
X1700070Y-684896D01*
X1700602Y-684757D01*
X1700856Y-684688D01*
X1701088Y-684619D01*
Y-684595D01*
Y-684549D01*
X1701111Y-684410D01*
Y-684248D01*
Y-684156D01*
Y-684109D01*
Y-684086D01*
Y-684063D01*
Y-683924D01*
X1701088Y-683693D01*
X1701042Y-683438D01*
X1700972Y-683161D01*
X1700856Y-682883D01*
X1700718Y-682628D01*
X1700533Y-682420D01*
X1700509Y-682397D01*
X1700394Y-682305D01*
X1700209Y-682212D01*
X1699977Y-682073D01*
X1699653Y-681957D01*
X1699283Y-681842D01*
X1698820Y-681772D01*
X1698288Y-681749D01*
X1698057D01*
X1697825Y-681772D01*
X1697501Y-681819D01*
X1697177Y-681865D01*
X1696830Y-681957D01*
X1696506Y-682073D01*
X1696229Y-682235D01*
X1696205Y-682258D01*
X1696113Y-682328D01*
X1695997Y-682443D01*
X1695858Y-682628D01*
X1695720Y-682860D01*
X1695558Y-683161D01*
X1695419Y-683531D01*
X1695280Y-683948D01*
X1693359Y-683693D01*
Y-683670D01*
X1693383Y-683647D01*
Y-683577D01*
X1693406Y-683485D01*
X1693475Y-683276D01*
X1693568Y-682976D01*
X1693683Y-682675D01*
X1693822Y-682351D01*
X1694007Y-682027D01*
X1694216Y-681726D01*
X1694239Y-681703D01*
X1694331Y-681610D01*
X1694470Y-681472D01*
X1694655Y-681286D01*
X1694910Y-681101D01*
X1695211Y-680916D01*
X1695558Y-680708D01*
X1695951Y-680546D01*
X1695974D01*
X1695997Y-680523D01*
X1696067Y-680500D01*
X1696159Y-680477D01*
X1696391Y-680407D01*
X1696715Y-680338D01*
X1697085Y-680268D01*
X1697548Y-680199D01*
X1698033Y-680153D01*
X1698589Y-680129D01*
X1698843D01*
X1699098Y-680153D01*
D02*
G37*
%LPC*%
G36*
X1625191Y-686169D02*
X1625168D01*
X1625144Y-686192D01*
X1625075Y-686215D01*
X1624982Y-686238D01*
X1624867Y-686285D01*
X1624728Y-686331D01*
X1624566Y-686377D01*
X1624381Y-686423D01*
X1624173Y-686493D01*
X1623918Y-686539D01*
X1623663Y-686609D01*
X1623363Y-686678D01*
X1623039Y-686747D01*
X1622715Y-686817D01*
X1622345Y-686863D01*
X1621951Y-686933D01*
X1621905D01*
X1621766Y-686956D01*
X1621535Y-687002D01*
X1621280Y-687048D01*
X1621002Y-687094D01*
X1620725Y-687164D01*
X1620470Y-687233D01*
X1620239Y-687326D01*
X1620216D01*
X1620146Y-687372D01*
X1620054Y-687418D01*
X1619961Y-687488D01*
X1619684Y-687673D01*
X1619452Y-687951D01*
Y-687974D01*
X1619406Y-688020D01*
X1619383Y-688113D01*
X1619336Y-688228D01*
X1619290Y-688367D01*
X1619244Y-688506D01*
X1619221Y-688691D01*
X1619198Y-688876D01*
Y-688899D01*
Y-689015D01*
X1619221Y-689154D01*
X1619267Y-689339D01*
X1619336Y-689547D01*
X1619452Y-689755D01*
X1619591Y-689987D01*
X1619776Y-690195D01*
X1619799Y-690218D01*
X1619892Y-690265D01*
X1620031Y-690357D01*
X1620216Y-690450D01*
X1620470Y-690542D01*
X1620771Y-690635D01*
X1621118Y-690681D01*
X1621535Y-690704D01*
X1621720D01*
X1621951Y-690681D01*
X1622206Y-690635D01*
X1622530Y-690589D01*
X1622854Y-690496D01*
X1623201Y-690380D01*
X1623548Y-690218D01*
X1623594Y-690195D01*
X1623687Y-690126D01*
X1623849Y-690010D01*
X1624034Y-689848D01*
X1624242Y-689663D01*
X1624473Y-689432D01*
X1624659Y-689154D01*
X1624844Y-688853D01*
X1624867Y-688830D01*
X1624890Y-688737D01*
X1624936Y-688575D01*
X1625006Y-688367D01*
X1625075Y-688089D01*
X1625121Y-687766D01*
X1625144Y-687372D01*
X1625168Y-686909D01*
X1625191Y-686169D01*
D02*
G37*
G36*
X1701111D02*
X1701088D01*
X1701065Y-686192D01*
X1700995Y-686215D01*
X1700903Y-686238D01*
X1700787Y-686285D01*
X1700648Y-686331D01*
X1700486Y-686377D01*
X1700301Y-686423D01*
X1700093Y-686493D01*
X1699838Y-686539D01*
X1699584Y-686609D01*
X1699283Y-686678D01*
X1698959Y-686747D01*
X1698635Y-686817D01*
X1698265Y-686863D01*
X1697872Y-686933D01*
X1697825D01*
X1697686Y-686956D01*
X1697455Y-687002D01*
X1697200Y-687048D01*
X1696923Y-687094D01*
X1696645Y-687164D01*
X1696391Y-687233D01*
X1696159Y-687326D01*
X1696136D01*
X1696067Y-687372D01*
X1695974Y-687418D01*
X1695882Y-687488D01*
X1695604Y-687673D01*
X1695372Y-687951D01*
Y-687974D01*
X1695326Y-688020D01*
X1695303Y-688113D01*
X1695257Y-688228D01*
X1695211Y-688367D01*
X1695164Y-688506D01*
X1695141Y-688691D01*
X1695118Y-688876D01*
Y-688899D01*
Y-689015D01*
X1695141Y-689154D01*
X1695187Y-689339D01*
X1695257Y-689547D01*
X1695372Y-689755D01*
X1695511Y-689987D01*
X1695696Y-690195D01*
X1695720Y-690218D01*
X1695812Y-690265D01*
X1695951Y-690357D01*
X1696136Y-690450D01*
X1696391Y-690542D01*
X1696691Y-690635D01*
X1697039Y-690681D01*
X1697455Y-690704D01*
X1697640D01*
X1697872Y-690681D01*
X1698126Y-690635D01*
X1698450Y-690589D01*
X1698774Y-690496D01*
X1699121Y-690380D01*
X1699468Y-690218D01*
X1699514Y-690195D01*
X1699607Y-690126D01*
X1699769Y-690010D01*
X1699954Y-689848D01*
X1700162Y-689663D01*
X1700394Y-689432D01*
X1700579Y-689154D01*
X1700764Y-688853D01*
X1700787Y-688830D01*
X1700810Y-688737D01*
X1700856Y-688575D01*
X1700926Y-688367D01*
X1700995Y-688089D01*
X1701042Y-687766D01*
X1701065Y-687372D01*
X1701088Y-686909D01*
X1701111Y-686169D01*
D02*
G37*
G36*
X1663602Y-681749D02*
X1663463D01*
X1663371Y-681772D01*
X1663116Y-681796D01*
X1662815Y-681865D01*
X1662445Y-681981D01*
X1662052Y-682143D01*
X1661682Y-682374D01*
X1661311Y-682675D01*
X1661265Y-682721D01*
X1661172Y-682837D01*
X1661010Y-683045D01*
X1660849Y-683323D01*
X1660663Y-683647D01*
X1660501Y-684063D01*
X1660363Y-684549D01*
X1660293Y-685081D01*
X1666795D01*
Y-685058D01*
Y-685012D01*
X1666772Y-684942D01*
Y-684850D01*
X1666726Y-684572D01*
X1666656Y-684271D01*
X1666541Y-683901D01*
X1666425Y-683554D01*
X1666240Y-683207D01*
X1666032Y-682906D01*
Y-682883D01*
X1665985Y-682860D01*
X1665870Y-682721D01*
X1665661Y-682536D01*
X1665384Y-682328D01*
X1665037Y-682120D01*
X1664620Y-681934D01*
X1664134Y-681796D01*
X1663880Y-681772D01*
X1663602Y-681749D01*
D02*
G37*
G36*
X1947099Y-684169D02*
X1947076D01*
X1947052Y-684192D01*
X1946983Y-684215D01*
X1946891Y-684238D01*
X1946775Y-684285D01*
X1946636Y-684331D01*
X1946474Y-684377D01*
X1946289Y-684423D01*
X1946081Y-684493D01*
X1945826Y-684539D01*
X1945572Y-684609D01*
X1945271Y-684678D01*
X1944947Y-684747D01*
X1944623Y-684817D01*
X1944253Y-684863D01*
X1943859Y-684932D01*
X1943813D01*
X1943674Y-684956D01*
X1943443Y-685002D01*
X1943188Y-685048D01*
X1942911Y-685094D01*
X1942633Y-685164D01*
X1942378Y-685233D01*
X1942147Y-685326D01*
X1942124D01*
X1942054Y-685372D01*
X1941962Y-685418D01*
X1941869Y-685488D01*
X1941592Y-685673D01*
X1941360Y-685951D01*
Y-685974D01*
X1941314Y-686020D01*
X1941291Y-686113D01*
X1941245Y-686228D01*
X1941198Y-686367D01*
X1941152Y-686506D01*
X1941129Y-686691D01*
X1941106Y-686876D01*
Y-686899D01*
Y-687015D01*
X1941129Y-687154D01*
X1941175Y-687339D01*
X1941245Y-687547D01*
X1941360Y-687756D01*
X1941499Y-687987D01*
X1941684Y-688195D01*
X1941707Y-688218D01*
X1941800Y-688264D01*
X1941939Y-688357D01*
X1942124Y-688450D01*
X1942378Y-688542D01*
X1942679Y-688635D01*
X1943026Y-688681D01*
X1943443Y-688704D01*
X1943628D01*
X1943859Y-688681D01*
X1944114Y-688635D01*
X1944438Y-688588D01*
X1944762Y-688496D01*
X1945109Y-688380D01*
X1945456Y-688218D01*
X1945502Y-688195D01*
X1945595Y-688126D01*
X1945757Y-688010D01*
X1945942Y-687848D01*
X1946150Y-687663D01*
X1946382Y-687431D01*
X1946567Y-687154D01*
X1946752Y-686853D01*
X1946775Y-686830D01*
X1946798Y-686737D01*
X1946844Y-686575D01*
X1946914Y-686367D01*
X1946983Y-686089D01*
X1947029Y-685766D01*
X1947052Y-685372D01*
X1947076Y-684909D01*
X1947099Y-684169D01*
D02*
G37*
G36*
X1648839Y-686169D02*
X1648816D01*
X1648793Y-686192D01*
X1648723Y-686215D01*
X1648631Y-686238D01*
X1648515Y-686285D01*
X1648376Y-686331D01*
X1648214Y-686377D01*
X1648029Y-686423D01*
X1647821Y-686493D01*
X1647567Y-686539D01*
X1647312Y-686609D01*
X1647011Y-686678D01*
X1646687Y-686747D01*
X1646363Y-686817D01*
X1645993Y-686863D01*
X1645600Y-686933D01*
X1645553D01*
X1645414Y-686956D01*
X1645183Y-687002D01*
X1644929Y-687048D01*
X1644651Y-687094D01*
X1644373Y-687164D01*
X1644119Y-687233D01*
X1643887Y-687326D01*
X1643864D01*
X1643795Y-687372D01*
X1643702Y-687418D01*
X1643610Y-687488D01*
X1643332Y-687673D01*
X1643101Y-687951D01*
Y-687974D01*
X1643054Y-688020D01*
X1643031Y-688113D01*
X1642985Y-688228D01*
X1642939Y-688367D01*
X1642892Y-688506D01*
X1642869Y-688691D01*
X1642846Y-688876D01*
Y-688899D01*
Y-689015D01*
X1642869Y-689154D01*
X1642915Y-689339D01*
X1642985Y-689547D01*
X1643101Y-689755D01*
X1643239Y-689987D01*
X1643425Y-690195D01*
X1643448Y-690218D01*
X1643540Y-690265D01*
X1643679Y-690357D01*
X1643864Y-690450D01*
X1644119Y-690542D01*
X1644420Y-690635D01*
X1644767Y-690681D01*
X1645183Y-690704D01*
X1645368D01*
X1645600Y-690681D01*
X1645854Y-690635D01*
X1646178Y-690589D01*
X1646502Y-690496D01*
X1646849Y-690380D01*
X1647196Y-690218D01*
X1647242Y-690195D01*
X1647335Y-690126D01*
X1647497Y-690010D01*
X1647682Y-689848D01*
X1647890Y-689663D01*
X1648122Y-689432D01*
X1648307Y-689154D01*
X1648492Y-688853D01*
X1648515Y-688830D01*
X1648538Y-688737D01*
X1648585Y-688575D01*
X1648654Y-688367D01*
X1648723Y-688089D01*
X1648770Y-687766D01*
X1648793Y-687372D01*
X1648816Y-686909D01*
X1648839Y-686169D01*
D02*
G37*
%LPD*%
D20*
X434700Y193000D02*
X500000D01*
X459700Y218000D02*
Y270000D01*
X434700Y218000D02*
X459700D01*
X434700Y193000D02*
Y218000D01*
X342000Y193000D02*
X404000D01*
Y218000D01*
X380000D02*
X404000D01*
X380000D02*
Y270000D01*
X342000Y178D02*
X499999D01*
Y193000D01*
X342000Y178D02*
Y193000D01*
X380000Y270000D02*
X459700D01*
X434700Y193000D02*
X500000D01*
X459700Y218000D02*
Y270000D01*
X434700Y218000D02*
X459700D01*
X434700Y193000D02*
Y218000D01*
X342000Y193000D02*
X404000D01*
Y218000D01*
X380000D02*
X404000D01*
X380000D02*
Y270000D01*
X342000Y178D02*
X499999D01*
Y193000D01*
X342000Y178D02*
Y193000D01*
X380000Y270000D02*
X459700D01*
D22*
X-758240Y1769600D02*
Y1820400D01*
X-1251000Y-999000D02*
Y1820400D01*
Y-999000D02*
X2686000D01*
Y1820400D01*
X-1251000D02*
X2686000D01*
X-1200200Y-948200D02*
Y1769600D01*
Y-948200D02*
X2635200D01*
Y1769600D01*
X-1200200D02*
X2635200D01*
X224740D02*
Y1820400D01*
X717500Y1769600D02*
Y1820400D01*
X1700480Y1769600D02*
Y1820400D01*
X2193240Y1769600D02*
Y1820400D01*
X-1251000Y1115550D02*
X-1200200D01*
X-1251000Y410700D02*
X-1200200D01*
X-1251000Y-294150D02*
X-1200200D01*
X-758240Y-999000D02*
Y-948200D01*
X-266750Y-999000D02*
Y-948200D01*
X224740Y-999000D02*
Y-948200D01*
X717500Y-999000D02*
Y-948200D01*
X1208990Y-999000D02*
Y-948200D01*
X1700480Y-999000D02*
Y-948200D01*
X2193240Y-999000D02*
Y-948200D01*
X2635200Y1115550D02*
X2686000D01*
X2635200Y410700D02*
X2686000D01*
X2635200Y-294150D02*
X2686000D01*
X1136600Y-948200D02*
X1492200D01*
Y-719600D02*
X1873200D01*
X1492200Y-948200D02*
X2635200D01*
X1492200Y-872000D02*
X2635200D01*
X1492200Y-795800D02*
X2635200D01*
X1492200Y-643400D02*
X1873200D01*
Y-795800D02*
Y-643400D01*
X2635200D01*
Y-948200D02*
Y-643400D01*
X1492200Y-948200D02*
Y-643400D01*
X2406600Y-948200D02*
Y-795800D01*
X1873200Y-948200D02*
Y-795800D01*
X-266750Y1769600D02*
Y1820400D01*
X1208990Y1769600D02*
Y1820400D01*
X1504900Y-809772D02*
Y-821200D01*
Y-809772D02*
X1508709D01*
X1510342Y-810317D01*
X1511430Y-811405D01*
X1511974Y-812493D01*
X1512518Y-814126D01*
Y-816847D01*
X1511974Y-818479D01*
X1511430Y-819567D01*
X1510342Y-820656D01*
X1508709Y-821200D01*
X1504900D01*
X1523783D02*
X1519429Y-809772D01*
X1515076Y-821200D01*
X1516708Y-817391D02*
X1522150D01*
X1530258Y-809772D02*
Y-821200D01*
X1526449Y-809772D02*
X1534067D01*
X1542502D02*
X1535428D01*
Y-821200D01*
X1542502D01*
X1535428Y-815214D02*
X1539781D01*
X1544951Y-813582D02*
X1544407Y-814126D01*
X1544951Y-814670D01*
X1545495Y-814126D01*
X1544951Y-813582D01*
Y-820112D02*
X1544407Y-820656D01*
X1544951Y-821200D01*
X1545495Y-820656D01*
X1544951Y-820112D01*
X2419300Y-809772D02*
Y-821200D01*
Y-809772D02*
X2424198D01*
X2425830Y-810317D01*
X2426374Y-810861D01*
X2426918Y-811949D01*
Y-813037D01*
X2426374Y-814126D01*
X2425830Y-814670D01*
X2424198Y-815214D01*
X2419300D01*
X2423109D02*
X2426918Y-821200D01*
X2436550Y-809772D02*
X2429476D01*
Y-821200D01*
X2436550D01*
X2429476Y-815214D02*
X2433829D01*
X2438455Y-809772D02*
X2442808Y-821200D01*
X2447162Y-809772D02*
X2442808Y-821200D01*
X2449175Y-813582D02*
X2448631Y-814126D01*
X2449175Y-814670D01*
X2449719Y-814126D01*
X2449175Y-813582D01*
Y-820112D02*
X2448631Y-820656D01*
X2449175Y-821200D01*
X2449719Y-820656D01*
X2449175Y-820112D01*
X1885900Y-885972D02*
Y-897400D01*
Y-885972D02*
X1889709D01*
X1891342Y-886517D01*
X1892430Y-887605D01*
X1892974Y-888693D01*
X1893518Y-890326D01*
Y-893047D01*
X1892974Y-894679D01*
X1892430Y-895768D01*
X1891342Y-896856D01*
X1889709Y-897400D01*
X1885900D01*
X1896076Y-885972D02*
X1898797Y-897400D01*
X1901518Y-885972D02*
X1898797Y-897400D01*
X1901518Y-885972D02*
X1904238Y-897400D01*
X1906959Y-885972D02*
X1904238Y-897400D01*
X1917407Y-888693D02*
X1916863Y-887605D01*
X1915775Y-886517D01*
X1914686Y-885972D01*
X1912510D01*
X1911422Y-886517D01*
X1910333Y-887605D01*
X1909789Y-888693D01*
X1909245Y-890326D01*
Y-893047D01*
X1909789Y-894679D01*
X1910333Y-895768D01*
X1911422Y-896856D01*
X1912510Y-897400D01*
X1914686D01*
X1915775Y-896856D01*
X1916863Y-895768D01*
X1917407Y-894679D01*
Y-893047D01*
X1914686D02*
X1917407D01*
X1928998Y-885972D02*
Y-897400D01*
Y-885972D02*
X1936617Y-897400D01*
Y-885972D02*
Y-897400D01*
X1943038Y-885972D02*
X1941949Y-886517D01*
X1940861Y-887605D01*
X1940317Y-888693D01*
X1939773Y-890326D01*
Y-893047D01*
X1940317Y-894679D01*
X1940861Y-895768D01*
X1941949Y-896856D01*
X1943038Y-897400D01*
X1945214D01*
X1946303Y-896856D01*
X1947391Y-895768D01*
X1947935Y-894679D01*
X1948479Y-893047D01*
Y-890326D01*
X1947935Y-888693D01*
X1947391Y-887605D01*
X1946303Y-886517D01*
X1945214Y-885972D01*
X1943038D01*
X1951690Y-889782D02*
X1951146Y-890326D01*
X1951690Y-890870D01*
X1952234Y-890326D01*
X1951690Y-889782D01*
Y-896312D02*
X1951146Y-896856D01*
X1951690Y-897400D01*
X1952234Y-896856D01*
X1951690Y-896312D01*
X1511974Y-657372D02*
X1504900D01*
Y-668800D01*
X1511974D01*
X1504900Y-662814D02*
X1509253D01*
X1513879Y-657372D02*
Y-668800D01*
Y-657372D02*
X1521497Y-668800D01*
Y-657372D02*
Y-668800D01*
X1532816Y-660093D02*
X1532272Y-659005D01*
X1531183Y-657917D01*
X1530095Y-657372D01*
X1527918D01*
X1526830Y-657917D01*
X1525742Y-659005D01*
X1525197Y-660093D01*
X1524653Y-661726D01*
Y-664447D01*
X1525197Y-666079D01*
X1525742Y-667168D01*
X1526830Y-668256D01*
X1527918Y-668800D01*
X1530095D01*
X1531183Y-668256D01*
X1532272Y-667168D01*
X1532816Y-666079D01*
Y-664447D01*
X1530095D02*
X1532816D01*
X1535428Y-657372D02*
Y-668800D01*
X1537822Y-657372D02*
Y-668800D01*
Y-657372D02*
X1545441Y-668800D01*
Y-657372D02*
Y-668800D01*
X1555671Y-657372D02*
X1548597D01*
Y-668800D01*
X1555671D01*
X1548597Y-662814D02*
X1552950D01*
X1564650Y-657372D02*
X1557576D01*
Y-668800D01*
X1564650D01*
X1557576Y-662814D02*
X1561929D01*
X1566554Y-657372D02*
Y-668800D01*
Y-657372D02*
X1571452D01*
X1573084Y-657917D01*
X1573629Y-658461D01*
X1574173Y-659549D01*
Y-660638D01*
X1573629Y-661726D01*
X1573084Y-662270D01*
X1571452Y-662814D01*
X1566554D01*
X1570364D02*
X1574173Y-668800D01*
X1577274Y-661182D02*
X1576730Y-661726D01*
X1577274Y-662270D01*
X1577819Y-661726D01*
X1577274Y-661182D01*
Y-667712D02*
X1576730Y-668256D01*
X1577274Y-668800D01*
X1577819Y-668256D01*
X1577274Y-667712D01*
X1885900Y-815758D02*
X1890797D01*
X1892430Y-815214D01*
X1892974Y-814670D01*
X1893518Y-813582D01*
Y-811949D01*
X1892974Y-810861D01*
X1892430Y-810317D01*
X1890797Y-809772D01*
X1885900D01*
Y-821200D01*
X1904783D02*
X1900429Y-809772D01*
X1896076Y-821200D01*
X1897708Y-817391D02*
X1903150D01*
X1907449Y-809772D02*
Y-821200D01*
Y-809772D02*
X1912347D01*
X1913979Y-810317D01*
X1914523Y-810861D01*
X1915067Y-811949D01*
Y-813037D01*
X1914523Y-814126D01*
X1913979Y-814670D01*
X1912347Y-815214D01*
X1907449D01*
X1911258D02*
X1915067Y-821200D01*
X1921434Y-809772D02*
Y-821200D01*
X1917625Y-809772D02*
X1925243D01*
X1935583D02*
Y-821200D01*
Y-809772D02*
X1943201Y-821200D01*
Y-809772D02*
Y-821200D01*
X1949622Y-809772D02*
X1948534Y-810317D01*
X1947446Y-811405D01*
X1946901Y-812493D01*
X1946357Y-814126D01*
Y-816847D01*
X1946901Y-818479D01*
X1947446Y-819567D01*
X1948534Y-820656D01*
X1949622Y-821200D01*
X1951799D01*
X1952887Y-820656D01*
X1953976Y-819567D01*
X1954520Y-818479D01*
X1955064Y-816847D01*
Y-814126D01*
X1954520Y-812493D01*
X1953976Y-811405D01*
X1952887Y-810317D01*
X1951799Y-809772D01*
X1949622D01*
X1958275Y-820112D02*
X1957730Y-820656D01*
X1958275Y-821200D01*
X1958819Y-820656D01*
X1958275Y-820112D01*
X1961866Y-813582D02*
X1961322Y-814126D01*
X1961866Y-814670D01*
X1962410Y-814126D01*
X1961866Y-813582D01*
Y-820112D02*
X1961322Y-820656D01*
X1961866Y-821200D01*
X1962410Y-820656D01*
X1961866Y-820112D01*
X1889709Y-657372D02*
Y-668800D01*
X1885900Y-657372D02*
X1893518D01*
X1894879D02*
Y-668800D01*
X1901082Y-657372D02*
Y-668800D01*
X1897273Y-657372D02*
X1904892D01*
X1906252D02*
Y-668800D01*
X1912782D01*
X1921108Y-657372D02*
X1914034D01*
Y-668800D01*
X1921108D01*
X1914034Y-662814D02*
X1918387D01*
X1923557Y-661182D02*
X1923012Y-661726D01*
X1923557Y-662270D01*
X1924101Y-661726D01*
X1923557Y-661182D01*
Y-667712D02*
X1923012Y-668256D01*
X1923557Y-668800D01*
X1924101Y-668256D01*
X1923557Y-667712D01*
X1504900Y-738288D02*
X1509798D01*
X1511430Y-737744D01*
X1511974Y-737200D01*
X1512518Y-736112D01*
Y-734479D01*
X1511974Y-733391D01*
X1511430Y-732847D01*
X1509798Y-732302D01*
X1504900D01*
Y-743730D01*
X1523239Y-735023D02*
X1522694Y-733935D01*
X1521606Y-732847D01*
X1520518Y-732302D01*
X1518341D01*
X1517253Y-732847D01*
X1516164Y-733935D01*
X1515620Y-735023D01*
X1515076Y-736656D01*
Y-739377D01*
X1515620Y-741009D01*
X1516164Y-742097D01*
X1517253Y-743186D01*
X1518341Y-743730D01*
X1520518D01*
X1521606Y-743186D01*
X1522694Y-742097D01*
X1523239Y-741009D01*
X1526449Y-732302D02*
Y-743730D01*
Y-732302D02*
X1531347D01*
X1532979Y-732847D01*
X1533523Y-733391D01*
X1534067Y-734479D01*
Y-735567D01*
X1533523Y-736656D01*
X1532979Y-737200D01*
X1531347Y-737744D01*
X1526449D02*
X1531347D01*
X1532979Y-738288D01*
X1533523Y-738832D01*
X1534067Y-739921D01*
Y-741553D01*
X1533523Y-742642D01*
X1532979Y-743186D01*
X1531347Y-743730D01*
X1526449D01*
X1545604Y-732302D02*
Y-743730D01*
Y-732302D02*
X1549413D01*
X1551046Y-732847D01*
X1552134Y-733935D01*
X1552678Y-735023D01*
X1553222Y-736656D01*
Y-739377D01*
X1552678Y-741009D01*
X1552134Y-742097D01*
X1551046Y-743186D01*
X1549413Y-743730D01*
X1545604D01*
X1562854Y-732302D02*
X1555780D01*
Y-743730D01*
X1562854D01*
X1555780Y-737744D02*
X1560133D01*
X1572377Y-733935D02*
X1571289Y-732847D01*
X1569656Y-732302D01*
X1567479D01*
X1565847Y-732847D01*
X1564759Y-733935D01*
Y-735023D01*
X1565303Y-736112D01*
X1565847Y-736656D01*
X1566935Y-737200D01*
X1570200Y-738288D01*
X1571289Y-738832D01*
X1571833Y-739377D01*
X1572377Y-740465D01*
Y-742097D01*
X1571289Y-743186D01*
X1569656Y-743730D01*
X1567479D01*
X1565847Y-743186D01*
X1564759Y-742097D01*
X1574935Y-732302D02*
Y-743730D01*
X1585491Y-735023D02*
X1584947Y-733935D01*
X1583859Y-732847D01*
X1582771Y-732302D01*
X1580594D01*
X1579506Y-732847D01*
X1578417Y-733935D01*
X1577873Y-735023D01*
X1577329Y-736656D01*
Y-739377D01*
X1577873Y-741009D01*
X1578417Y-742097D01*
X1579506Y-743186D01*
X1580594Y-743730D01*
X1582771D01*
X1583859Y-743186D01*
X1584947Y-742097D01*
X1585491Y-741009D01*
Y-739377D01*
X1582771D02*
X1585491D01*
X1588103Y-732302D02*
Y-743730D01*
Y-732302D02*
X1595722Y-743730D01*
Y-732302D02*
Y-743730D01*
X1605952Y-732302D02*
X1598878D01*
Y-743730D01*
X1605952D01*
X1598878Y-737744D02*
X1603231D01*
X1607857Y-732302D02*
Y-743730D01*
Y-732302D02*
X1612754D01*
X1614387Y-732847D01*
X1614931Y-733391D01*
X1615475Y-734479D01*
Y-735567D01*
X1614931Y-736656D01*
X1614387Y-737200D01*
X1612754Y-737744D01*
X1607857D01*
X1611666D02*
X1615475Y-743730D01*
X1618577Y-736112D02*
X1618033Y-736656D01*
X1618577Y-737200D01*
X1619121Y-736656D01*
X1618577Y-736112D01*
Y-742642D02*
X1618033Y-743186D01*
X1618577Y-743730D01*
X1619121Y-743186D01*
X1618577Y-742642D01*
X1504900Y-885972D02*
Y-897400D01*
Y-885972D02*
X1511974D01*
X1504900Y-891414D02*
X1509253D01*
X1513280Y-885972D02*
Y-897400D01*
X1515674Y-885972D02*
Y-897400D01*
X1522205D01*
X1530530Y-885972D02*
X1523456D01*
Y-897400D01*
X1530530D01*
X1523456Y-891414D02*
X1527809D01*
X1541414Y-885972D02*
Y-897400D01*
Y-885972D02*
X1549032Y-897400D01*
Y-885972D02*
Y-897400D01*
X1560895D02*
X1556542Y-885972D01*
X1552188Y-897400D01*
X1553821Y-893591D02*
X1559263D01*
X1563561Y-885972D02*
Y-897400D01*
Y-885972D02*
X1567915Y-897400D01*
X1572268Y-885972D02*
X1567915Y-897400D01*
X1572268Y-885972D02*
Y-897400D01*
X1582607Y-885972D02*
X1575533D01*
Y-897400D01*
X1582607D01*
X1575533Y-891414D02*
X1579886D01*
X1585056Y-889782D02*
X1584512Y-890326D01*
X1585056Y-890870D01*
X1585600Y-890326D01*
X1585056Y-889782D01*
Y-896312D02*
X1584512Y-896856D01*
X1585056Y-897400D01*
X1585600Y-896856D01*
X1585056Y-896312D01*
X2426918Y-887605D02*
X2425830Y-886517D01*
X2424198Y-885972D01*
X2422021D01*
X2420388Y-886517D01*
X2419300Y-887605D01*
Y-888693D01*
X2419844Y-889782D01*
X2420388Y-890326D01*
X2421477Y-890870D01*
X2424742Y-891958D01*
X2425830Y-892503D01*
X2426374Y-893047D01*
X2426918Y-894135D01*
Y-895768D01*
X2425830Y-896856D01*
X2424198Y-897400D01*
X2422021D01*
X2420388Y-896856D01*
X2419300Y-895768D01*
X2437639Y-888693D02*
X2437094Y-887605D01*
X2436006Y-886517D01*
X2434918Y-885972D01*
X2432741D01*
X2431653Y-886517D01*
X2430564Y-887605D01*
X2430020Y-888693D01*
X2429476Y-890326D01*
Y-893047D01*
X2430020Y-894679D01*
X2430564Y-895768D01*
X2431653Y-896856D01*
X2432741Y-897400D01*
X2434918D01*
X2436006Y-896856D01*
X2437094Y-895768D01*
X2437639Y-894679D01*
X2449556Y-897400D02*
X2445202Y-885972D01*
X2440849Y-897400D01*
X2442482Y-893591D02*
X2447923D01*
X2452222Y-885972D02*
Y-897400D01*
X2458752D01*
X2467078Y-885972D02*
X2460004D01*
Y-897400D01*
X2467078D01*
X2460004Y-891414D02*
X2464357D01*
X2469527Y-889782D02*
X2468983Y-890326D01*
X2469527Y-890870D01*
X2470071Y-890326D01*
X2469527Y-889782D01*
Y-896312D02*
X2468983Y-896856D01*
X2469527Y-897400D01*
X2470071Y-896856D01*
X2469527Y-896312D01*
D23*
X-1010630Y1800500D02*
X-1008938Y1801347D01*
X-1006398Y1803886D01*
Y1786110D01*
X-519395Y1799654D02*
Y1800500D01*
X-518549Y1802193D01*
X-517702Y1803040D01*
X-516010Y1803886D01*
X-512624D01*
X-510931Y1803040D01*
X-510084Y1802193D01*
X-509238Y1800500D01*
Y1798807D01*
X-510084Y1797114D01*
X-511777Y1794575D01*
X-520242Y1786110D01*
X-508391D01*
X-1218406Y1446258D02*
X-1225178Y1464034D01*
X-1231950Y1446258D01*
X-1229410Y1452183D02*
X-1220946D01*
X-1231950Y757914D02*
Y740138D01*
Y757914D02*
X-1224332D01*
X-1221792Y757068D01*
X-1220946Y756221D01*
X-1220099Y754528D01*
Y752835D01*
X-1220946Y751142D01*
X-1221792Y750296D01*
X-1224332Y749449D01*
X-1231950D02*
X-1224332D01*
X-1221792Y748603D01*
X-1220946Y747756D01*
X-1220099Y746063D01*
Y743524D01*
X-1220946Y741831D01*
X-1221792Y740984D01*
X-1224332Y740138D01*
X-1231950D01*
X-1219253Y47562D02*
X-1220099Y49255D01*
X-1221792Y50948D01*
X-1223485Y51794D01*
X-1226871D01*
X-1228564Y50948D01*
X-1230257Y49255D01*
X-1231104Y47562D01*
X-1231950Y45022D01*
Y40790D01*
X-1231104Y38250D01*
X-1230257Y36558D01*
X-1228564Y34864D01*
X-1226871Y34018D01*
X-1223485D01*
X-1221792Y34864D01*
X-1220099Y36558D01*
X-1219253Y38250D01*
X-1231950Y-649246D02*
Y-667022D01*
Y-649246D02*
X-1226025D01*
X-1223485Y-650092D01*
X-1221792Y-651785D01*
X-1220946Y-653478D01*
X-1220099Y-656018D01*
Y-660250D01*
X-1220946Y-662790D01*
X-1221792Y-664482D01*
X-1223485Y-666176D01*
X-1226025Y-667022D01*
X-1231950D01*
X-25956Y1803886D02*
X-16645D01*
X-21723Y1797114D01*
X-19184D01*
X-17491Y1796268D01*
X-16645Y1795421D01*
X-15798Y1792882D01*
Y1791189D01*
X-16645Y1788649D01*
X-18338Y1786956D01*
X-20877Y1786110D01*
X-23416D01*
X-25956Y1786956D01*
X-26802Y1787803D01*
X-27649Y1789496D01*
X473743Y1803886D02*
X465278Y1792035D01*
X477975D01*
X473743Y1803886D02*
Y1786110D01*
X969887Y1803884D02*
X958038D01*
Y1794997D01*
X963963Y1797959D01*
X966925D01*
X969887Y1794997D01*
Y1789072D01*
X966925Y1786110D01*
X961000D01*
X958038Y1789072D01*
X1460108Y1803884D02*
X1454183Y1800922D01*
X1448258Y1794997D01*
Y1789072D01*
X1451220Y1786110D01*
X1457145D01*
X1460108Y1789072D01*
Y1792035D01*
X1457145Y1794997D01*
X1448258D01*
X1943558Y1803884D02*
X1955408D01*
Y1800922D01*
X1943558Y1789072D01*
Y1786110D01*
X2433778Y1800922D02*
X2436740Y1803884D01*
X2442665D01*
X2445627Y1800922D01*
Y1797959D01*
X2442665Y1794997D01*
X2445627Y1792035D01*
Y1789072D01*
X2442665Y1786110D01*
X2436740D01*
X2433778Y1789072D01*
Y1792035D01*
X2436740Y1794997D01*
X2433778Y1797959D01*
Y1800922D01*
X2436740Y1794997D02*
X2442665D01*
X-1010630Y-968100D02*
X-1008938Y-967253D01*
X-1006398Y-964714D01*
Y-982490D01*
X-519395Y-968946D02*
Y-968100D01*
X-518549Y-966407D01*
X-517702Y-965560D01*
X-516010Y-964714D01*
X-512624D01*
X-510931Y-965560D01*
X-510084Y-966407D01*
X-509238Y-968100D01*
Y-969793D01*
X-510084Y-971486D01*
X-511777Y-974025D01*
X-520242Y-982490D01*
X-508391D01*
X-25956Y-964714D02*
X-16645D01*
X-21723Y-971486D01*
X-19184D01*
X-17491Y-972332D01*
X-16645Y-973179D01*
X-15798Y-975718D01*
Y-977411D01*
X-16645Y-979950D01*
X-18338Y-981644D01*
X-20877Y-982490D01*
X-23416D01*
X-25956Y-981644D01*
X-26802Y-980797D01*
X-27649Y-979104D01*
X473743Y-964714D02*
X465278Y-976565D01*
X477975D01*
X473743Y-964714D02*
Y-982490D01*
X969887Y-964716D02*
X958038D01*
Y-973603D01*
X963963Y-970640D01*
X966925D01*
X969887Y-973603D01*
Y-979528D01*
X966925Y-982490D01*
X961000D01*
X958038Y-979528D01*
X1460108Y-964716D02*
X1454183Y-967678D01*
X1448258Y-973603D01*
Y-979528D01*
X1451220Y-982490D01*
X1457145D01*
X1460108Y-979528D01*
Y-976565D01*
X1457145Y-973603D01*
X1448258D01*
X1943558Y-964716D02*
X1955408D01*
Y-967678D01*
X1943558Y-979528D01*
Y-982490D01*
X2433778Y-967678D02*
X2436740Y-964716D01*
X2442665D01*
X2445627Y-967678D01*
Y-970640D01*
X2442665Y-973603D01*
X2445627Y-976565D01*
Y-979528D01*
X2442665Y-982490D01*
X2436740D01*
X2433778Y-979528D01*
Y-976565D01*
X2436740Y-973603D01*
X2433778Y-970640D01*
Y-967678D01*
X2436740Y-973603D02*
X2442665D01*
X2667794Y1446258D02*
X2661022Y1464034D01*
X2654250Y1446258D01*
X2656790Y1452183D02*
X2665254D01*
X2654250Y757914D02*
Y740138D01*
Y757914D02*
X2661868D01*
X2664408Y757068D01*
X2665254Y756221D01*
X2666101Y754528D01*
Y752835D01*
X2665254Y751142D01*
X2664408Y750296D01*
X2661868Y749449D01*
X2654250D02*
X2661868D01*
X2664408Y748603D01*
X2665254Y747756D01*
X2666101Y746063D01*
Y743524D01*
X2665254Y741831D01*
X2664408Y740984D01*
X2661868Y740138D01*
X2654250D01*
X2666947Y47562D02*
X2666101Y49255D01*
X2664408Y50948D01*
X2662715Y51794D01*
X2659329D01*
X2657636Y50948D01*
X2655943Y49255D01*
X2655096Y47562D01*
X2654250Y45022D01*
Y40790D01*
X2655096Y38250D01*
X2655943Y36558D01*
X2657636Y34864D01*
X2659329Y34018D01*
X2662715D01*
X2664408Y34864D01*
X2666101Y36558D01*
X2666947Y38250D01*
X2654250Y-649246D02*
Y-667022D01*
Y-649246D02*
X2660175D01*
X2662715Y-650092D01*
X2664408Y-651785D01*
X2665254Y-653478D01*
X2666101Y-656018D01*
Y-660250D01*
X2665254Y-662790D01*
X2664408Y-664482D01*
X2662715Y-666176D01*
X2660175Y-667022D01*
X2654250D01*
X1522679Y-833904D02*
X1520139Y-834750D01*
X1518447Y-837290D01*
X1517600Y-841522D01*
Y-844062D01*
X1518447Y-848294D01*
X1520139Y-850834D01*
X1522679Y-851680D01*
X1524372D01*
X1526911Y-850834D01*
X1528604Y-848294D01*
X1529451Y-844062D01*
Y-841522D01*
X1528604Y-837290D01*
X1526911Y-834750D01*
X1524372Y-833904D01*
X1522679D01*
X1533429Y-837290D02*
X1535122Y-836443D01*
X1537662Y-833904D01*
Y-851680D01*
X1547312Y-849987D02*
X1546465Y-850834D01*
X1547312Y-851680D01*
X1548158Y-850834D01*
X1547312Y-849987D01*
X1557131Y-833904D02*
X1554591Y-834750D01*
X1552898Y-837290D01*
X1552052Y-841522D01*
Y-844062D01*
X1552898Y-848294D01*
X1554591Y-850834D01*
X1557131Y-851680D01*
X1558824D01*
X1561363Y-850834D01*
X1563056Y-848294D01*
X1563903Y-844062D01*
Y-841522D01*
X1563056Y-837290D01*
X1561363Y-834750D01*
X1558824Y-833904D01*
X1557131D01*
X1569574D02*
X1578885D01*
X1573807Y-840676D01*
X1576346D01*
X1578039Y-841522D01*
X1578885Y-842369D01*
X1579732Y-844908D01*
Y-846601D01*
X1578885Y-849140D01*
X1577193Y-850834D01*
X1574653Y-851680D01*
X1572114D01*
X1569574Y-850834D01*
X1568728Y-849987D01*
X1567881Y-848294D01*
X1584557Y-849987D02*
X1583710Y-850834D01*
X1584557Y-851680D01*
X1585403Y-850834D01*
X1584557Y-849987D01*
X1590144Y-838136D02*
Y-837290D01*
X1590990Y-835597D01*
X1591837Y-834750D01*
X1593530Y-833904D01*
X1596916D01*
X1598609Y-834750D01*
X1599455Y-835597D01*
X1600302Y-837290D01*
Y-838983D01*
X1599455Y-840676D01*
X1597762Y-843215D01*
X1589297Y-851680D01*
X1601148D01*
X1610206Y-833904D02*
X1607666Y-834750D01*
X1605973Y-837290D01*
X1605127Y-841522D01*
Y-844062D01*
X1605973Y-848294D01*
X1607666Y-850834D01*
X1610206Y-851680D01*
X1611898D01*
X1614438Y-850834D01*
X1616131Y-848294D01*
X1616977Y-844062D01*
Y-841522D01*
X1616131Y-837290D01*
X1614438Y-834750D01*
X1611898Y-833904D01*
X1610206D01*
X1620956Y-837290D02*
X1622649Y-836443D01*
X1625188Y-833904D01*
Y-851680D01*
X1644149Y-833904D02*
X1635685D01*
X1634838Y-841522D01*
X1635685Y-840676D01*
X1638224Y-839829D01*
X1640764D01*
X1643303Y-840676D01*
X1644996Y-842369D01*
X1645842Y-844908D01*
Y-846601D01*
X1644996Y-849140D01*
X1643303Y-850834D01*
X1640764Y-851680D01*
X1638224D01*
X1635685Y-850834D01*
X1634838Y-849987D01*
X1633992Y-848294D01*
X1527758Y-916029D02*
Y-927880D01*
Y-918569D02*
X1526065Y-916876D01*
X1524372Y-916029D01*
X1521832D01*
X1520139Y-916876D01*
X1518447Y-918569D01*
X1517600Y-921108D01*
Y-922801D01*
X1518447Y-925340D01*
X1520139Y-927033D01*
X1521832Y-927880D01*
X1524372D01*
X1526065Y-927033D01*
X1527758Y-925340D01*
X1535038Y-910104D02*
Y-924494D01*
X1535884Y-927033D01*
X1537577Y-927880D01*
X1539270D01*
X1532498Y-916029D02*
X1538423D01*
X1541810D02*
Y-927880D01*
Y-919415D02*
X1544349Y-916876D01*
X1546042Y-916029D01*
X1548581D01*
X1550274Y-916876D01*
X1551121Y-919415D01*
Y-927880D01*
Y-919415D02*
X1553660Y-916876D01*
X1555353Y-916029D01*
X1557893D01*
X1559586Y-916876D01*
X1560432Y-919415D01*
Y-927880D01*
X1566019Y-916029D02*
Y-924494D01*
X1566865Y-927033D01*
X1568558Y-927880D01*
X1571098D01*
X1572791Y-927033D01*
X1575330Y-924494D01*
Y-916029D02*
Y-927880D01*
X1589297Y-918569D02*
X1588451Y-916876D01*
X1585911Y-916029D01*
X1583372D01*
X1580832Y-916876D01*
X1579986Y-918569D01*
X1580832Y-920262D01*
X1582525Y-921108D01*
X1586758Y-921955D01*
X1588451Y-922801D01*
X1589297Y-924494D01*
Y-925340D01*
X1588451Y-927033D01*
X1585911Y-927880D01*
X1583372D01*
X1580832Y-927033D01*
X1579986Y-925340D01*
X1594715Y-910104D02*
X1595561Y-910950D01*
X1596408Y-910104D01*
X1595561Y-909257D01*
X1594715Y-910104D01*
X1595561Y-916029D02*
Y-927880D01*
X1609698Y-918569D02*
X1608005Y-916876D01*
X1606312Y-916029D01*
X1603772D01*
X1602079Y-916876D01*
X1600386Y-918569D01*
X1599540Y-921108D01*
Y-922801D01*
X1600386Y-925340D01*
X1602079Y-927033D01*
X1603772Y-927880D01*
X1606312D01*
X1608005Y-927033D01*
X1609698Y-925340D01*
X1614353Y-926187D02*
X1613507Y-927033D01*
X1614353Y-927880D01*
X1615200Y-927033D01*
X1614353Y-926187D01*
X1619094Y-919415D02*
X1626712D01*
X1629251Y-918569D01*
X1630098Y-917722D01*
X1630944Y-916029D01*
Y-913490D01*
X1630098Y-911797D01*
X1629251Y-910950D01*
X1626712Y-910104D01*
X1619094D01*
Y-927880D01*
X1645081Y-918569D02*
X1643388Y-916876D01*
X1641695Y-916029D01*
X1639155D01*
X1637462Y-916876D01*
X1635769Y-918569D01*
X1634923Y-921108D01*
Y-922801D01*
X1635769Y-925340D01*
X1637462Y-927033D01*
X1639155Y-927880D01*
X1641695D01*
X1643388Y-927033D01*
X1645081Y-925340D01*
X1648890Y-910104D02*
Y-927880D01*
Y-918569D02*
X1650583Y-916876D01*
X1652276Y-916029D01*
X1654815D01*
X1656508Y-916876D01*
X1658201Y-918569D01*
X1659048Y-921108D01*
Y-922801D01*
X1658201Y-925340D01*
X1656508Y-927033D01*
X1654815Y-927880D01*
X1652276D01*
X1650583Y-927033D01*
X1648890Y-925340D01*
X1662857Y-910104D02*
Y-927880D01*
Y-910104D02*
X1668782D01*
X1671322Y-910950D01*
X1673015Y-912643D01*
X1673861Y-914336D01*
X1674708Y-916876D01*
Y-921108D01*
X1673861Y-923648D01*
X1673015Y-925340D01*
X1671322Y-927033D01*
X1668782Y-927880D01*
X1662857D01*
X1682919Y-916029D02*
X1681226Y-916876D01*
X1679533Y-918569D01*
X1678686Y-921108D01*
Y-922801D01*
X1679533Y-925340D01*
X1681226Y-927033D01*
X1682919Y-927880D01*
X1685458D01*
X1687151Y-927033D01*
X1688844Y-925340D01*
X1689690Y-922801D01*
Y-921108D01*
X1688844Y-918569D01*
X1687151Y-916876D01*
X1685458Y-916029D01*
X1682919D01*
X1703742Y-918569D02*
X1702049Y-916876D01*
X1700356Y-916029D01*
X1697817D01*
X1696124Y-916876D01*
X1694431Y-918569D01*
X1693584Y-921108D01*
Y-922801D01*
X1694431Y-925340D01*
X1696124Y-927033D01*
X1697817Y-927880D01*
X1700356D01*
X1702049Y-927033D01*
X1703742Y-925340D01*
M02*
