M48
;Layer_Color=9474304
;FILE_FORMAT=4:4
METRIC,LZ
;TYPE=PLATED
T1F00S00C0.3000
T2F00S00C1.0000
%
T01
X0036Y0007
X00405Y00109
X00406Y00122
X00420999Y00121
X00439Y00122
X0044Y00084
X00484Y00012
X00445Y00158
X00429Y00171
X00417Y0016
X00402999Y0016
X00409Y00176
T02
X0035895Y00178
X0038435
X0039445Y0023105
X0041985
X0044525
Y0025645
X0041985
X0039445
X0045765Y00179
X0048305
M30
